<?xml version="1.0" encoding="UTF-8" standalone="no"?>
<svg width="134px" height="151px" viewBox="0 0 134 151" version="1.1" xmlns="http://www.w3.org/2000/svg" xmlns:xlink="http://www.w3.org/1999/xlink" xmlns:sketch="http://www.bohemiancoding.com/sketch/ns">
    <!-- Generator: Sketch 3.2.2 (9983) - http://www.bohemiancoding.com/sketch -->
    <title>Imported Layers + Imported Layers</title>
    <desc>Created with Sketch.</desc>
    <defs>
        <path id="path-1" d="M0,0.499662414 L134,0.499662414 L134,129.499662 L0,129.499662 L0,0.499662414 Z"></path>
        <path id="path-3" d="M0,-0.181754584 L127,-0.181754584 L127,11.8181232 L0,11.8181232"></path>
        <path id="path-5" d="M0,-0.181754584 L127,-0.181754584 L127,11.8181232 L0,11.8181232"></path>
        <path id="path-7" d="M0,-0.181754584 L127,-0.181754584 L127,11.8181232 L0,11.8181232 L0,-0.181754584 Z"></path>
    </defs>
    <g id="Page-1" stroke="none" stroke-width="1" fill="none" fill-rule="evenodd" sketch:type="MSPage">
        <g id="Imported-Layers-+-Imported-Layers" sketch:type="MSLayerGroup">
            <g id="Imported-Layers">
                <g id="Group-3">
                    <mask id="mask-2" sketch:name="Clip 2" fill="white">
                        <use xlink:href="#path-1"></use>
                    </mask>
                    <g id="Clip-2"></g>
                    <path d="M134.00035,62.2283696 C134.00035,76.8274511 130.236633,92.3525123 124.779535,101.592829 C114.23996,118.596249 91.8432172,129.499433 67.3773053,129.499433 C27.1014475,129.499433 0.000350113221,103.810367 0.000350113221,65.5541043 C0.000350113221,26.9288245 28.042085,0.499433211 69.2585804,0.499433211 C86.3849521,0.499433211 102.382792,5.4914733 113.110261,13.9914644 C118.75642,18.4276874 122.332244,22.3092392 129.48389,31.5484098 L87.8904389,47.8126506 C79.9860495,40.4208557 76.0344383,38.3866796 69.4464745,38.3866796 C56.272881,38.3866796 46.4860495,50.029043 46.4860495,65.9254131 C46.4860495,82.1873619 55.5201376,92.9071835 69.0706863,92.9071835 C78.8575179,92.9071835 87.1376955,87.9162894 88.8322435,81.0780196 L66.2476067,81.0780196 L66.2476067,53.3559237 L134.00035,53.3559237 L134.00035,62.2283696 Z" id="Fill-1" fill="#030404" sketch:type="MSShapeGroup" mask="url(#mask-2)"></path>
                </g>
                <path d="M76.4749974,16.7884279 C76.3477896,16.875525 76.2707647,17.025653 76.2882703,17.186095 C76.3104442,17.3981077 76.4866678,17.5631339 76.703738,17.573448 C83.8087023,17.882872 88.0415712,19.6351285 93.6620554,22.2583561 C95.3309284,23.179752 97.4000975,23.6656622 99.6501585,23.6656622 C102.643627,23.6656622 105.881007,22.8038591 108.769441,21.2395491 C108.881477,21.1788103 108.959669,21.0733769 108.986511,20.9496073 C109.012186,20.8258377 108.981843,20.6986301 108.901317,20.5977808 C108.840631,20.5221438 101.897885,12.9573007 90.4876955,12.9573007 C85.8895419,12.9573007 81.2131963,14.2167709 76.5893677,16.7013308 C76.5461871,16.7242511 76.5076746,16.7540475 76.4749974,16.7884279" id="Fill-4" fill="#CCCCCC" sketch:type="MSShapeGroup"></path>
                <path d="M89.3836718,34.2511709 C91.2626128,36.8182438 94.8582756,38.5131996 99.0036161,38.7848051 C99.7878697,38.8352297 100.584961,38.8352297 101.37505,38.781367 C101.480084,38.774491 101.574614,38.7091681 101.639969,38.6266551 C101.704156,38.545288 101.727497,38.4261025 101.708824,38.3229612 C101.44974,36.9156551 98.5753109,24.519214 77.7319038,23.1543104 L77.3817906,23.1325362 C77.3234384,23.1290981 77.2674203,23.1394122 77.2149033,23.1623325 C77.0830273,23.1841068 76.9709911,23.273496 76.9266434,23.4018496 C76.8659572,23.5726058 76.941815,23.7616982 77.1052012,23.8442113 C82.8003762,26.7585267 86.4380526,30.753534 89.3836718,34.2511709" id="Fill-6" fill="#CCCCCC" sketch:type="MSShapeGroup"></path>
                <path d="M40.6892249,46.3592747 C40.665884,46.2446733 40.5923602,46.146116 40.4896603,46.0888153 C40.428974,46.0555808 40.3589514,46.0372446 40.2912628,46.0372446 C40.243414,46.0372446 40.1955652,46.0464127 40.1500505,46.0636029 C39.9819962,46.1254877 23.6818917,53.4175793 27.4969587,72.9319178 C27.505128,72.9811965 27.5249678,73.024745 27.5483087,73.0637095 C27.5926563,73.1966472 27.7046926,73.3043726 27.8517401,73.334169 C27.8797492,73.3398991 27.9065912,73.3433371 27.9346002,73.3433371 C28.1014875,73.3433371 28.2543703,73.2424878 28.3138896,73.0843378 C30.6012959,67.0184819 33.3741926,63.8497513 37.3211357,59.7275363 C40.4219718,56.9026101 41.7442327,51.6561547 40.6892249,46.3592747" id="Fill-8" fill="#CCCCCC" sketch:type="MSShapeGroup"></path>
                <path d="M34.4859188,67.2029903 C34.411228,67.1284993 34.3096952,67.0860968 34.2034942,67.0860968 C34.1941578,67.0860968 34.1883226,67.0872428 34.1778192,67.0872428 C34.0622818,67.0952649 33.9572479,67.1525657 33.8883923,67.2442468 C33.7856924,67.3806226 24.4890193,81.7929036 38.1842815,95.6585356 C38.2181258,95.692916 38.2566382,95.7192744 38.2986518,95.7376106 C38.3686744,95.7949113 38.4562028,95.8235617 38.5460651,95.8235617 C38.5927469,95.8235617 38.6417628,95.8155396 38.6896116,95.7972034 C38.8716704,95.7284425 38.9720362,95.538204 38.9300226,95.3514036 C37.5015607,89.2408532 38.0325658,85.2194876 39.0000453,79.8080061 C39.9850305,75.8943659 38.2122905,70.9458743 34.4859188,67.2029903" id="Fill-10" fill="#CCCCCC" sketch:type="MSShapeGroup"></path>
                <path d="M62.4601986,106.174252 C62.4765372,106.175398 62.4928758,106.176544 62.5092144,106.176544 C62.5418917,106.176544 62.5722348,106.173106 62.604912,106.167376 L62.604912,106.167376 C62.7496255,106.167376 62.8873367,106.091739 62.9620275,105.962239 C63.0647274,105.788045 63.0192127,105.56801 62.8593276,105.444241 C57.6017941,101.394225 55.3447309,97.7842783 52.5123149,92.7612958 C50.6928932,88.9450668 45.9395227,86.0662779 40.4018986,85.4279477 C40.38556,85.4268016 40.3692214,85.4245096 40.3528828,85.4245096 C40.2501829,85.4245096 40.147483,85.4634741 40.0727922,85.534527 C39.9852639,85.6147481 39.9374151,85.7293495 39.9432503,85.8485351 C39.9502526,86.0250213 42.0392615,103.744701 62.4601986,106.174252" id="Fill-12" fill="#CCCCCC" sketch:type="MSShapeGroup"></path>
                <path d="M88.5700087,103.16264 C88.6166905,103.142012 88.657537,103.113361 88.6925483,103.078981 C88.8139209,103.009074 88.8909458,102.877282 88.8886117,102.731738 C88.8862777,102.532332 88.735729,102.36616 88.5338303,102.339801 C81.9552029,101.481436 78.1634767,99.5137291 73.1533566,96.62348 C71.3549416,95.4155805 69.008016,94.7783963 66.3693294,94.7783963 C63.9407107,94.7783963 61.3965546,95.3238993 59.0157847,96.3576046 C58.9060826,96.4057372 58.8232224,96.4974184 58.7882111,96.6097278 C58.7567009,96.7220372 58.7730395,96.8446608 58.837227,96.9432181 C58.8944121,97.0280232 65.4963804,105.617403 77.3850584,105.617403 C81.0192336,105.617403 84.7829507,104.791127 88.5700087,103.16264" id="Fill-14" fill="#CCCCCC" sketch:type="MSShapeGroup"></path>
                <path d="M100.46779,89.6773702 C100.482961,89.6372597 100.487629,89.5948571 100.482961,89.5536006 C100.513304,89.4344151 100.468957,89.3037694 100.368591,89.2269864 C100.318408,89.190314 100.261223,89.1696857 100.205205,89.1639556 C100.116509,89.1547875 100.023146,89.1811458 99.9531231,89.2430306 C96.3061104,92.4518718 93.4375161,92.622628 89.8243477,92.5171947 C89.7041421,92.4977124 89.5839366,92.4828142 89.462564,92.4702081 C86.7363491,92.1848504 83.8269082,93.5130814 82.0506671,95.8566815 C81.9468002,95.9942033 81.9724752,96.1913178 82.1113534,96.2956052 C82.1428636,96.3208175 85.3370632,98.7400545 89.1859746,99.1445977 C92.7793033,99.5204906 97.6563804,98.1853834 100.46779,89.6773702" id="Fill-16" fill="#CCCCCC" sketch:type="MSShapeGroup"></path>
                <path d="M49.6232973,21.3159882 C49.69332,21.3159882 49.7633426,21.299944 49.8286971,21.2655636 C56.1132294,17.9879615 60.6635342,17.3874498 66.8605382,16.8453848 C71.4260146,16.7502656 76.3275997,13.4485972 79.3467427,8.43134483 C79.4120972,8.32247344 79.4261017,8.19182776 79.3829211,8.07378824 C79.3420746,7.9534567 79.248711,7.85833748 79.1285055,7.81249689 C78.8460808,7.70477151 76.1292022,6.98163622 72.4705191,6.98163622 C65.6538147,6.98163622 56.0957237,9.3401345 49.2790193,20.5745167 C49.2533444,20.6157732 49.2370057,20.6581758 49.2276694,20.7017244 C49.1599808,20.8415381 49.1739854,21.0088563 49.269683,21.140648 C49.3560442,21.2541034 49.4879202,21.3159882 49.6232973,21.3159882" id="Fill-18" fill="#CCCCCC" sketch:type="MSShapeGroup"></path>
                <path d="M28.7612176,37.2169424 C28.8207368,37.2444467 28.8837572,37.2581989 28.9479446,37.2581989 C29.090324,37.2581989 29.2280352,37.189438 29.3120624,37.0668144 C33.247335,31.2427677 36.956201,28.5851596 42.1402108,25.2112922 C46.1081606,22.9903157 48.8145358,17.794285 49.0339401,11.9702383 C49.0386083,11.8430306 48.9860913,11.7215531 48.8915607,11.635602 C48.8098676,11.563403 48.7048337,11.5244385 48.5962986,11.5244385 C48.5787929,11.5244385 48.5577861,11.5267306 48.5402804,11.5267306 C48.3488852,11.5519429 29.3797509,15.3337914 28.4927974,36.7138419 C28.4916304,36.7619745 28.4974656,36.8078151 28.5103031,36.8502177 C28.5184724,37.0049296 28.6118359,37.1470355 28.7612176,37.2169424" id="Fill-20" fill="#CCCCCC" sketch:type="MSShapeGroup"></path>
                <path d="M20.0198241,61.807553 C20.0991831,61.9221545 20.2345602,61.9943534 20.3804407,61.9943534 C20.3967793,61.9943534 20.4131179,61.9932074 20.4294565,61.9920614 C20.6453597,61.9691411 20.81108,61.7926548 20.8192493,61.5806421 C21.075999,54.6014125 22.824231,50.429919 25.447746,44.8877918 C27.6499582,40.9592534 27.1901428,35.1386447 24.2783679,30.0617995 C24.2153475,29.9506361 24.1044783,29.8738531 23.9784376,29.8497868 C23.9527626,29.8452027 23.9259206,29.8429107 23.8990786,29.8429107 C23.7975457,29.8429107 23.698347,29.8761451 23.618988,29.941468 C23.4707734,30.0617995 9.37638216,43.1263672 19.9357969,61.7021197 C19.9591378,61.7422302 19.9871468,61.7766106 20.0198241,61.807553" id="Fill-22" fill="#CCCCCC" sketch:type="MSShapeGroup"></path>
                <path d="M23.5442972,87.0058953 C23.5839767,87.0299616 23.6259902,87.0482979 23.6680038,87.057466 C23.7310242,87.0895544 23.8010469,87.1067446 23.8710695,87.1067446 C23.9562637,87.1067446 24.0449591,87.0815323 24.1196499,87.0311076 C24.2982076,86.9096301 24.3588939,86.6781351 24.2631963,86.4867506 C21.1191796,80.2157581 20.6465267,75.7314026 20.2847431,69.6346043 C20.3255896,65.1491027 17.1115503,60.2372837 12.0955948,57.1247077 C12.0244052,57.0811592 11.9438791,57.0582389 11.862186,57.0582389 C11.8190054,57.0582389 11.7746577,57.065115 11.7314771,57.0777211 C11.6089375,57.1143936 11.5097387,57.2049288 11.4583888,57.3218223 C11.383698,57.4960165 5.14468037,75.4804254 23.5442972,87.0058953" id="Fill-24" fill="#CCCCCC" sketch:type="MSShapeGroup"></path>
                <path d="M40.3570841,106.417092 C40.4061,106.4148 40.4504477,106.40334 40.4947953,106.38615 C40.6488451,106.359792 40.7818882,106.255504 40.8355722,106.103084 C40.9067619,105.901386 40.8157325,105.679059 40.6231702,105.581648 C34.2919561,102.352178 31.2086257,99.0184215 27.2476781,94.3254913 C24.8015537,90.9997566 19.9151402,88.9460982 14.5000557,88.9644345 C14.0355722,88.9655805 13.5699216,88.9816247 13.1007699,89.0137131 C12.9723951,89.0228812 12.8545236,89.087058 12.7786657,89.1890533 C12.7028079,89.2910486 12.6759659,89.4216943 12.706309,89.5443179 C12.7494896,89.7139281 18.1388991,106.560344 38.0836823,106.497314 C38.8270894,106.493875 39.5903362,106.467517 40.3570841,106.417092" id="Fill-26" fill="#CCCCCC" sketch:type="MSShapeGroup"></path>
                <path d="M67.37112,113.222701 C67.4924926,113.121852 67.5496778,112.957971 67.5111653,112.796383 C67.4633165,112.603853 67.2870928,112.470915 67.0886953,112.468623 C67.0746908,112.468623 67.0595192,112.468623 67.0443477,112.470915 C65.6077164,112.601561 64.2784532,112.658862 62.974865,112.649694 C58.0090925,112.609583 54.2827208,111.564418 49.5900366,110.099811 C48.3739767,109.632237 47.0167044,109.388136 45.5590664,109.376675 C42.000749,109.348025 38.0678105,110.719805 34.7674099,113.144772 C34.6635429,113.220409 34.6005226,113.337302 34.5923532,113.463364 C34.585351,113.591718 34.6367009,113.714341 34.7300644,113.802584 C34.7860826,113.853009 41.1476398,119.04331 50.448981,119.118947 C56.2608605,119.164787 61.9233583,117.213124 67.2765894,113.31782 C67.3127678,113.290316 67.345445,113.259373 67.37112,113.222701" id="Fill-28" fill="#CCCCCC" sketch:type="MSShapeGroup"></path>
                <path d="M92.3890437,105.99066 C92.2863438,105.986076 92.183644,106.014727 92.0996168,106.081196 C86.4686292,110.373021 82.0933809,111.728756 76.0901063,113.301088 C71.6063229,114.162891 67.3559484,118.240412 65.2599373,123.690858 C65.2144226,123.807751 65.2237589,123.940689 65.2844452,124.051852 C65.3497997,124.163016 65.4583348,124.240945 65.5843755,124.266157 C65.64973,124.276471 66.0348546,124.321166 66.6440516,124.346378 C71.0823202,124.534324 86.0835046,123.815773 92.7589967,106.669101 C92.7765024,106.627845 92.7846717,106.585442 92.7870057,106.54304 C92.8336875,106.394058 92.792841,106.225593 92.6714684,106.109846 C92.5932764,106.034209 92.4917436,105.995244 92.3890437,105.99066" id="Fill-30" fill="#CCCCCC" sketch:type="MSShapeGroup"></path>
                <path d="M109.870197,90.4165497 C109.863195,90.3695631 109.848023,90.3271605 109.828183,90.288196 C109.793172,90.1357761 109.674133,90.0108605 109.514248,89.97075 C109.47807,89.9615819 109.440725,89.9558518 109.403379,89.9558518 C109.22949,89.9558518 109.069605,90.0567011 108.999582,90.2182892 C106.22085,96.672644 103.079167,99.9536841 98.6245602,104.201961 C95.1456018,107.107108 93.4673924,112.70539 94.3461766,118.466406 C94.3660164,118.591321 94.4407072,118.703631 94.5504093,118.768954 C94.620432,118.811356 94.699791,118.83313 94.7814841,118.83313 C94.8258317,118.83313 94.8713465,118.826254 94.9156941,118.811356 C95.09892,118.751763 113.028218,111.593756 109.870197,90.4165497" id="Fill-32" fill="#CCCCCC" sketch:type="MSShapeGroup"></path>
                <path d="M41.0898711,98.710602 C41.0011758,98.710602 40.9124804,98.6853896 40.8366225,98.6303809 C40.6849068,98.5238016 25.7677495,87.6870865 25.7677495,68.33319 C25.7677495,44.3482481 40.9311531,32.7608934 45.5794896,29.7812551 C49.1564797,27.4892257 51.9317105,26.3867595 52.0472479,26.3409189 C52.1009319,26.3214367 52.1546159,26.3111226 52.210634,26.3111226 L52.2316408,26.3111226 C52.4393747,26.3214367 52.6202665,26.4589585 52.685621,26.6526349 C52.7999913,26.9941473 55.4445132,25.8859511 53.2936509,27.6175793 C53.2738112,27.6347696 50.5254224,29.1841814 50.5009145,29.1967876 C46.9577687,31.1049021 42.9968211,34.5429462 39.631066,38.6307807 C32.2751872,47.5651114 28.5453144,57.4655325 28.5453144,68.0581465 C28.5453144,84.8804964 41.2707629,97.8602591 41.3991378,97.9886127 C41.5566887,98.1467627 41.563691,98.3965939 41.4166434,98.5639121 C41.3326163,98.6601773 41.2124107,98.710602 41.0898711,98.710602" id="Fill-34" fill="#CCCCCC" sketch:type="MSShapeGroup"></path>
                <path d="M69.7559746,115.367009 C48.9475788,115.367009 36.5722435,104.282755 36.4497039,104.170445 C36.2793155,104.015733 36.2606427,103.759026 36.4076903,103.584832 C36.4940516,103.480544 36.6189253,103.426682 36.7484672,103.426682 C36.8348284,103.426682 36.9235238,103.451894 36.9993816,103.503465 C37.1219213,103.589416 49.5556088,112.016062 70.0383992,112.016062 C81.5314492,112.016062 90.7616008,108.527593 97.4744383,101.652651 C110.448467,88.3657564 109.672383,66.6911801 109.664214,66.4722913 C109.656044,66.2683007 109.793755,66.0872304 109.995654,66.0379517 C110.736727,65.8557354 111.476633,65.7629082 112.192031,65.7629082 C115.547283,65.7629082 117.40405,67.7455137 117.481075,67.8303188 C117.553431,67.9093938 117.590777,68.0113891 117.590777,68.1168224 C117.590777,80.9074926 111.904938,93.0243062 101.578932,102.234826 C92.3592841,110.457482 80.4636039,115.367009 69.7559746,115.367009" id="Fill-36" fill="#CCCCCC" sketch:type="MSShapeGroup"></path>
                <path d="M81.7112907,29.431033 C81.6541056,29.3668562 74.620331,23.5141591 64.5090611,23.435084 C59.7031737,23.3972656 55.8274203,24.4160726 50.6982616,27.0839949 C50.6574151,27.1057692 50.6235708,27.1378576 50.5943947,27.172238 C50.4753562,27.2604811 50.4100017,27.407171 50.4333426,27.560737 C50.4636858,27.7601436 50.6387424,27.9091255 50.8441421,27.9102715 L50.8453092,27.9102715 L51.2397701,27.9125635 C55.4084515,27.9457979 58.5594705,28.5508937 61.6824804,29.5593867 C61.6287964,29.5513646 61.5552726,29.5410504 61.4700784,29.5318823 C61.5225954,29.5410504 61.6614736,29.5719928 61.9917471,29.6682581 C61.989413,29.665966 61.988246,29.661382 61.9847448,29.6590899 C62.0197561,29.6694041 62.0547675,29.6831562 62.0874447,29.6946164 C62.148131,29.7129526 62.2088173,29.7301429 62.281174,29.7519171 L62.1504651,29.7175367 C63.7936631,30.2676238 65.4403623,30.9208521 67.2376102,31.6646157 C68.688246,32.3820209 70.3746246,32.7521836 72.2488974,32.7670818 L72.2570667,32.7670818 C75.3403971,32.7911481 78.6629716,31.8262038 81.6144261,30.052173 C81.718293,29.9891422 81.7906497,29.8837088 81.8081554,29.7645233 C81.8279951,29.6441917 81.7918168,29.5238602 81.7112907,29.431033" id="Fill-38" fill="#CCCCCC" sketch:type="MSShapeGroup"></path>
                <path d="M55.8756192,30.414772 C50.5398937,30.414772 37.4258195,32.0696173 30.9358875,47.4124622 C30.9160477,47.4605949 30.9055443,47.5110195 30.9020432,47.5591521 C30.8600296,47.704696 30.897375,47.8674301 31.0117453,47.9797395 C31.0981066,48.0633986 31.2101428,48.1069472 31.3233461,48.1069472 C31.4143755,48.1069472 31.505405,48.0805888 31.5824299,48.0244341 C37.3172844,43.8953431 41.7345462,42.6599392 47.7903379,41.2491951 C52.295128,40.5145997 56.663374,36.5562649 58.9227713,31.1654117 C58.9717871,31.0473722 58.9659519,30.9167265 58.9064327,30.803271 C58.8807577,30.7551384 58.8422453,30.7161739 58.8013987,30.6806475 L58.2190437,30.5305195 C57.7720658,30.4800949 56.9633043,30.414772 55.8756192,30.414772" id="Fill-40" fill="#CCCCCC" sketch:type="MSShapeGroup"></path>
                <path d="M56.3371852,30.5277691 L56.3453545,30.5300611 C56.3546908,30.5312071 56.3628601,30.5323532 56.3721965,30.5334992 C56.3453545,30.5277691 56.3371852,30.5277691 56.3371852,30.5277691" id="Fill-42" fill="#030404" sketch:type="MSShapeGroup"></path>
            </g>
            <g id="Imported-Layers" transform="translate(4.000000, 139.000000)">
                <path d="M11.4174314,10.364331 C11.4174314,10.6801602 11.2668556,11.0489671 10.9286772,11.180189 C9.69897472,11.6675847 7.00177522,11.8163301 6.4932733,11.8163301 C2.47874115,11.8163301 0,9.62549454 0,6.01770681 C0,2.72697079 2.32857675,-0.181102549 6.57925784,-0.181102549 C8.11175756,-0.181102549 9.47722509,0.0198055443 10.3411847,0.488862777 C10.797849,0.737858407 11.1681174,1.24114744 11.1989731,1.82471822 L11.2668556,3.06032337 L11.2668556,3.11330116 C11.2668556,3.46254708 11.0660879,3.59417652 10.6456276,3.59417652 C10.1893746,3.59417652 9.95281427,3.31257917 9.79935859,3.0097907 C9.38013249,2.1923026 8.5194642,0.838923736 6.4932733,0.838923736 C4.47078508,0.838923736 3.27358396,2.44292831 3.27358396,5.65175251 C3.27358396,8.9571593 4.67155283,10.7975263 6.90097993,10.7975263 C7.354353,10.7975263 7.59214759,10.7490313 7.94637101,10.6125116 C8.1796401,10.5310073 8.39974408,10.2457422 8.39974408,9.77790758 L8.39974408,8.08995358 C8.39974408,7.17180766 8.14713876,6.82256175 7.2881161,6.72149642 C7.0322195,6.68767214 6.86724437,6.51895824 6.86724437,6.20190652 C6.86724437,5.88403976 7.08405708,5.71817851 7.2881161,5.71817851 L12.3640843,5.71817851 C12.5677319,5.71817851 12.7845446,5.88403976 12.7845446,6.21942995 C12.7845446,6.51895824 12.5841883,6.68767214 12.3640843,6.72149642 C11.5030046,6.836825 11.4174314,7.33807643 11.4174314,8.25662987 L11.4174314,10.364331 Z" id="Fill-1" fill="#030404" sketch:type="MSShapeGroup"></path>
                <g id="Group-5">
                    <mask id="mask-4" sketch:name="Clip 4" fill="white">
                        <use xlink:href="#path-3"></use>
                    </mask>
                    <g id="Clip-4"></g>
                    <path d="M19.8753899,0.838923736 C18.1696869,0.838923736 17.1115421,2.30926127 17.1115421,4.89987537 C17.1115421,5.13297766 17.1259415,5.45084442 17.1419864,5.70187766 C17.3785468,8.92700271 18.5453036,10.7975263 20.5340563,10.7975263 C21.3766226,10.7975263 21.969052,10.3806319 22.3734673,9.87734282 C22.9802961,9.15928996 23.1827095,8.14293137 23.1827095,6.90406605 C23.1827095,3.56238984 22.0694359,0.838923736 19.8753899,0.838923736 M20.0485933,11.8179602 C15.9431397,11.8179602 13.8396038,8.99261367 13.8396038,6.01933689 C13.8396038,2.10916821 16.991822,-0.181917592 20.1987577,-0.181917592 C22.7087659,-0.181917592 26.4542364,1.15597545 26.4542364,5.71736347 C26.4542364,8.85772406 24.2618361,11.8179602 20.0485933,11.8179602" id="Fill-3" fill="#030404" sketch:type="MSShapeGroup" mask="url(#mask-4)"></path>
                </g>
                <g id="Group-8">
                    <mask id="mask-6" sketch:name="Clip 7" fill="white">
                        <use xlink:href="#path-5"></use>
                    </mask>
                    <g id="Clip-7"></g>
                    <path d="M33.9738114,0.838923736 C32.269754,0.838923736 31.2054381,2.30926127 31.2054381,4.89987537 C31.2054381,5.13297766 31.2260085,5.45084442 31.2408193,5.70187766 C31.4802595,8.92700271 32.6404338,10.7975263 34.6291864,10.7975263 C35.4725755,10.7975263 36.0662392,10.3806319 36.4673633,9.87734282 C37.0758376,9.15928996 37.2794853,8.14293137 37.2794853,6.90406605 C37.2794853,3.56238984 36.1629204,0.838923736 33.9738114,0.838923736 M34.1404321,11.8179602 C30.0432067,11.8179602 27.936791,8.99261367 27.936791,6.01933689 C27.936791,2.10916821 31.0885978,-0.181917592 34.2922422,-0.181917592 C36.8055417,-0.181917592 40.5497779,1.15597545 40.5497779,5.71736347 C40.5497779,8.85772406 38.3586119,11.8179602 34.1404321,11.8179602" id="Fill-6" fill="#030404" sketch:type="MSShapeGroup" mask="url(#mask-6)"></path>
                </g>
                <path d="M49.1822974,1.99143526 C48.4734392,1.24200324 47.6497977,1.00645582 46.3135402,1.00645582 L45.6923122,1.00645582 C45.4528719,1.00645582 45.2858397,1.18902545 45.2858397,1.40704944 L45.2858397,8.85776481 C45.2858397,10.0921474 45.7100028,10.6304833 47.0240441,10.6304833 C49.7895376,10.6304833 50.4671287,8.22488394 50.4671287,6.08498861 C50.4671287,4.31430774 50.1289503,2.96011383 49.1822974,1.99143526 L49.1822974,1.99143526 Z M41.3054546,11.6162778 C41.1013956,11.6162778 40.8812916,11.4479714 40.8812916,11.1146188 C40.8812916,10.8163131 41.1013956,10.6463766 41.3219109,10.6145899 C42.1825792,10.4955937 42.2681524,9.91080034 42.2681524,8.99265443 L42.2681524,2.6446922 C42.2681524,1.72532372 42.1825792,1.13849278 41.3219109,1.02153411 C41.1013956,0.988117353 40.8812916,0.82307115 40.8812916,0.523135334 C40.8812916,0.188967714 41.1013956,0.0206613395 41.3054546,0.0206613395 L48.0854802,0.0206613395 C52.0140278,0.0206613395 53.739067,2.86190116 53.739067,5.66605652 C53.739067,8.50974146 51.8975989,11.6162778 47.3280756,11.6162778 L41.3054546,11.6162778 Z" id="Fill-9" fill="#030404" sketch:type="MSShapeGroup"></path>
                <path d="M69.602887,4.34743924 C67.1759834,4.34743924 69.0655864,0.839901787 66.4510802,0.839901787 C63.7324874,0.839901787 63.140058,3.66280314 63.140058,5.53536438 C63.140058,8.59340562 64.5915101,10.4109515 66.735364,10.4109515 C68.085198,10.4109515 68.8277918,10.1126457 69.9069185,9.02456336 C70.0414493,8.89293392 70.1582896,8.84158621 70.2957003,8.84158621 C70.5495398,8.84158621 70.7663525,9.04371687 70.7663525,9.3098284 C70.7663525,9.42841715 70.7161606,9.55963907 70.6322331,9.67822782 C69.3021468,11.398376 67.3602948,11.8164931 66.2630661,11.8164931 C63.2778801,11.8164931 59.8878673,9.97816364 59.8878673,6.01786982 C59.8878673,2.84164734 62.062577,-0.180939541 66.5317164,-0.180939541 C68.8101012,-0.180939541 71.104531,0.688303794 71.104531,2.77685142 C71.104531,3.69662742 70.4833029,4.34743924 69.602887,4.34743924" id="Fill-11" fill="#030404" sketch:type="MSShapeGroup"></path>
                <path d="M95.7744029,11.8165338 C94.6981561,11.8165338 93.3117067,11.6148107 92.4004351,11.3136523 C91.8293989,11.1323052 91.357101,10.614753 91.2534259,9.47654544 C91.2373809,9.34369344 91.2373809,9.19291048 91.2373809,9.02419659 C91.2373809,8.52457524 91.3406446,7.95689781 92.0992834,7.95689781 L92.1465955,7.95689781 C92.670731,7.95689781 92.9085256,8.10768076 93.1121732,8.71040504 C93.3812349,9.57761077 93.952271,10.7973226 95.7451928,10.7973226 C96.7872926,10.7973226 97.4961509,10.2618393 97.4961509,9.44435124 C97.4961509,8.34037553 96.7547913,7.82404581 95.1186164,7.088062 C93.3812349,6.30317561 91.2744077,5.33327447 91.2744077,3.1774858 C91.2744077,1.18918845 93.1965121,-0.180898789 95.7451928,-0.180898789 C96.6708638,-0.180898789 97.8001824,-0.0146300214 98.7595889,0.355807011 C99.6383592,0.672043686 99.8226706,1.13865579 99.8226706,1.99159827 L99.8226706,2.17579798 C99.8226706,2.72676703 99.8066256,3.44441237 99.1010587,3.44441237 L99.0298848,3.44441237 C98.6773071,3.44441237 98.3551736,3.32989883 98.1206702,2.69335027 C97.8162273,1.90846388 97.2953831,0.838312454 95.7077546,0.838312454 C94.748348,0.838312454 94.1221831,1.32448559 94.1221831,2.09144103 C94.1221831,4.43183694 100.44719,4.12945599 100.44719,8.38968563 C100.44719,10.6787338 98.4925843,11.8165338 95.7744029,11.8165338" id="Fill-13" fill="#030404" sketch:type="MSShapeGroup"></path>
                <path d="M106.579534,2.69347252 C106.542507,2.60911558 106.513297,2.57895899 106.442123,2.57895899 C106.379178,2.57895899 106.341739,2.60911558 106.312941,2.69347252 L105.246568,5.78452301 C105.228466,5.83587072 105.228466,5.86602731 105.228466,5.8847733 C105.228466,6.01844035 105.312805,6.13539901 105.498762,6.13539901 L107.48916,6.13539901 C107.626571,6.13539901 107.759044,6.01844035 107.759044,5.86602731 C107.759044,5.83587072 107.759044,5.81630969 107.739708,5.76781463 L106.579534,2.69347252 Z M112.196094,9.22807959 C112.433888,9.87726132 112.667158,10.5455966 113.256296,10.6148752 C113.475988,10.6434017 113.680047,10.8165984 113.680047,11.1144966 C113.680047,11.4478491 113.459943,11.616563 113.256296,11.616563 L108.448566,11.616563 C108.247799,11.616563 108.02646,11.4478491 108.02646,11.1324275 C108.02646,10.8165984 108.231754,10.6434017 108.448566,10.6148752 C108.92251,10.5455966 109.160305,10.3805504 109.160305,9.92860903 C109.160305,9.61114979 109.056629,9.36256168 109.006437,9.21014864 L108.467903,7.70557931 C108.417711,7.55642644 108.297991,7.32210159 108.02646,7.32210159 L104.990671,7.32210159 C104.773858,7.32210159 104.618346,7.55642644 104.569799,7.72310273 L104.215576,8.80833246 C104.111901,9.12701426 104.065411,9.40901913 104.065411,9.64660416 C104.065411,10.1608963 104.215576,10.5455966 104.689519,10.6148752 C104.911269,10.6434017 105.112037,10.8165984 105.112037,11.1324275 C105.112037,11.4478491 104.890699,11.616563 104.689519,11.616563 L101.550466,11.616563 C101.349699,11.616563 101.130006,11.4478491 101.130006,11.1144966 C101.130006,10.8165984 101.333654,10.6434017 101.550466,10.6148752 C101.837219,10.5794208 102.039221,10.4795781 102.176631,10.345096 C102.462972,10.0773544 102.597092,9.79371941 102.818841,9.21014864 L105.799502,1.289561 C105.817192,1.22150491 105.870676,1.05605118 105.870676,0.891004982 C105.870676,0.78912461 105.83694,0.687244238 105.799502,0.620818235 C105.767,0.55357719 105.750955,0.504674611 105.750955,0.438248608 C105.750955,0.221039655 105.886721,0.020539083 106.186638,0.020539083 L108.382329,0.020539083 C108.702406,0.020539083 108.806081,0.138312793 108.903174,0.421540227 L112.196094,9.22807959 Z" id="Fill-15" fill="#030404" sketch:type="MSShapeGroup"></path>
                <g id="Group-19">
                    <mask id="mask-8" sketch:name="Clip 18" fill="white">
                        <use xlink:href="#path-7"></use>
                    </mask>
                    <g id="Clip-18"></g>
                    <path d="M119.982468,1.00645582 L119.307345,1.00645582 C119.072842,1.00645582 118.903341,1.18902545 118.903341,1.4062344 L118.903341,5.13383345 C118.903341,5.34981984 119.090944,5.53524212 119.307345,5.53524212 L119.866039,5.53524212 C121.503448,5.53524212 122.231643,4.74831812 122.231643,3.31180488 C122.231643,2.00977372 121.603421,1.00645582 119.982468,1.00645582 L119.982468,1.00645582 Z M123.87728,11.6146477 C123.372069,11.6146477 123.139212,11.3982538 122.98411,11.2156841 C122.430353,10.596659 121.566805,9.36268394 120.84149,8.25504053 C119.7817,6.65225852 119.647581,6.52062908 119.207373,6.52062908 L119.157181,6.52062908 C118.987269,6.52062908 118.903341,6.65225852 118.903341,6.82219498 L118.903341,8.99265443 C118.903341,9.91080034 119.039106,10.4955937 119.899775,10.6145899 C120.116587,10.6463766 120.336691,10.8163131 120.336691,11.1146188 C120.336691,11.4479714 120.116587,11.6146477 119.916231,11.6146477 L114.854662,11.6146477 C114.653894,11.6146477 114.432556,11.4479714 114.432556,11.1146188 C114.432556,10.8163131 114.653894,10.6463766 114.870707,10.6145899 C115.733432,10.4955937 115.886888,9.91080034 115.886888,8.99265443 L115.886888,2.64387716 C115.886888,1.72532372 115.733432,1.13849278 114.870707,1.02071907 C114.653894,0.98730231 114.432556,0.82307115 114.432556,0.523135334 C114.432556,0.188967714 114.653894,0.0206613395 114.854662,0.0206613395 L121.874128,0.0206613395 C124.673357,0.0206613395 125.498644,1.89118497 125.498644,3.06117916 C125.498644,4.3970346 124.456544,5.6334548 122.967654,5.98636841 C122.901417,6.00103918 122.867681,6.03527098 122.867681,6.10088194 C122.867681,6.15385974 122.901417,6.18686898 122.935564,6.23740164 C123.763731,7.28880708 124.623165,8.59491345 125.231639,9.36268394 C125.836411,10.1304544 126.087782,10.3452182 126.360958,10.4955937 C126.661698,10.6639 127.000288,10.6463766 127.000288,11.1146188 C127.000288,11.4479714 126.779773,11.6146477 126.579416,11.6146477 L123.87728,11.6146477 Z" id="Fill-17" fill="#030404" sketch:type="MSShapeGroup" mask="url(#mask-8)"></path>
                </g>
                <path d="M77.4703086,6.12117651 C77.3538797,6.09224249 77.2662495,5.99362229 77.2662495,5.87177336 C77.2662495,5.80208719 77.2905227,5.74095897 77.3357777,5.69694665 L77.3324864,5.69368647 L79.8441403,2.29903248 L79.8503115,2.30310769 C79.9005034,2.20448749 80.0008873,2.13317123 80.1238987,2.13317123 C80.2859939,2.13317123 80.4250503,2.2672458 80.4312214,2.4302544 L80.4312214,2.44003491 L80.4312214,2.44981543 C80.4312214,2.51298126 80.4345127,2.57655461 80.4345127,2.64379566 L80.4345127,5.90559765 L80.4250503,5.90804278 C80.4118852,6.01440588 80.3341288,6.09387257 80.2341564,6.12117651 L77.4703086,6.12117651 Z M89.461656,8.59320186 C89.0379044,8.59320186 88.903785,8.74235473 88.6659904,9.01009634 C87.4864799,10.3642903 86.7936666,10.6304018 85.4265534,10.6304018 C83.722496,10.6304018 83.4538457,10.0790252 83.4538457,9.12705501 L83.4538457,6.41907472 C83.4538457,6.20186577 83.6402141,6.01766606 83.8615523,6.01766606 L85.0217266,6.01766606 C86.2534861,6.01766606 86.7776216,6.41907472 87.0121249,7.1204192 C87.0816531,7.33803568 87.2326403,7.524273 87.5366718,7.524273 C87.8748503,7.524273 88.0624529,7.30461892 88.0624529,7.10411834 L88.0624529,4.04526205 C88.0624529,3.84720661 87.8567482,3.63122022 87.5366718,3.63122022 C87.2663759,3.63122022 87.1158001,3.74736385 87.0479175,3.94664185 C86.7776216,4.73315833 86.2695311,5.03024149 85.07233,5.03024149 L83.8615523,5.03024149 C83.6402141,5.03024149 83.4538457,4.86601033 83.4538457,4.64717129 L83.4538457,1.4081905 C83.4538457,1.18975898 83.6402141,1.00555927 83.8615523,1.00555927 L85.614156,1.00555927 C87.3470121,1.00555927 87.9571321,1.82467746 88.2788542,2.26194802 C88.4993696,2.54354537 88.5997535,2.67558233 89.0202138,2.67558233 C89.3242453,2.67558233 89.5287157,2.51012861 89.5287157,2.20897023 L89.5287157,0.422396023 C89.5287157,0.205594591 89.3583923,0.0197647922 89.1205977,0.0197647922 L79.405578,0.0197647922 C79.3084854,0.0197647922 79.2048102,0.0609244625 79.124174,0.14242876 C79.1143002,0.151394233 79.1044264,0.160767227 79.0945526,0.177068087 C79.0316069,0.257757341 78.9847063,0.371048315 78.9847063,0.523461352 C78.9847063,0.692990291 79.0575257,0.822174603 79.1612009,0.906939072 C79.1644921,0.912644373 79.1760116,0.917127109 79.1788915,0.922017367 C79.1949364,0.934243012 79.2142727,0.944023528 79.2290834,0.955026608 C79.2644646,0.992111063 79.2891492,1.04060612 79.2891492,1.09358391 C79.2891492,1.13148341 79.2763955,1.16327009 79.2615847,1.19301916 C79.2517109,1.21217267 79.2356659,1.2317337 79.2175639,1.24599695 L79.1788915,1.29652961 L72.5383336,9.88504498 C72.5383336,9.88504498 72.3811753,10.1352632 71.9199854,10.4030048 C71.7599472,10.4975498 71.5558882,10.5505276 71.2716043,10.5823142 C71.0543802,10.6177686 70.8536125,10.786075 70.8536125,11.0860108 C70.8536125,11.4156957 71.0704252,11.5840021 71.2716043,11.5840021 L75.0076124,11.5840021 C75.2096143,11.5840021 75.4280727,11.4156957 75.4280727,11.1019041 C75.4280727,10.786075 75.2277164,10.6177686 75.0076124,10.5823142 C74.5381943,10.5183334 74.3213816,10.5309665 74.3213816,10.0183045 C74.3213816,9.66213073 74.7113977,9.26316719 75.043405,8.78718209 L75.9785384,7.524273 L75.9818296,7.524273 C75.9912921,7.50185932 76.0056914,7.48596598 76.0188565,7.46681247 C76.0332558,7.45499435 76.0394269,7.43747092 76.0497122,7.42809793 C76.1159491,7.36574714 76.1965853,7.32866268 76.2924437,7.32214234 L76.3603262,7.32214234 L80.2045349,7.32214234 C80.3275463,7.33966576 80.4250503,7.43747092 80.4312214,7.56584019 L80.4345127,7.56584019 L80.4345127,8.99257292 C80.4345127,9.91071883 80.2859939,10.4955122 79.421623,10.6124708 C79.2048102,10.6450726 78.9847063,10.8162316 78.9847063,11.1145373 C78.9847063,11.4478899 79.2048102,11.6145662 79.405578,11.6145662 L89.1707896,11.6145662 C89.3925392,11.6145662 89.5464063,11.4319965 89.575205,11.2139726 L89.9508217,9.0757073 C89.9508217,9.0757073 89.9635754,8.99257292 89.9635754,8.9106611 C89.9635754,8.72646139 89.8631915,8.59320186 89.461656,8.59320186 L89.461656,8.59320186 Z" id="Fill-20" fill="#030404" sketch:type="MSShapeGroup"></path>
            </g>
        </g>
    </g>
</svg>