<?xml version="1.0" encoding="UTF-8" standalone="no"?>
<svg width="141px" height="115px" viewBox="0 0 141 115" version="1.1" xmlns="http://www.w3.org/2000/svg" xmlns:xlink="http://www.w3.org/1999/xlink" xmlns:sketch="http://www.bohemiancoding.com/sketch/ns">
    <!-- Generator: Sketch 3.2.2 (9983) - http://www.bohemiancoding.com/sketch -->
    <title>Imported Layers</title>
    <desc>Created with Sketch.</desc>
    <defs>
        <path id="path-1" d="M0,0.945 L140.312,0.945 L140.312,115 L0,115"></path>
    </defs>
    <g id="Page-1" stroke="none" stroke-width="1" fill="none" fill-rule="evenodd" sketch:type="MSPage">
        <g id="Imported-Layers" sketch:type="MSLayerGroup">
            <mask id="mask-2" sketch:name="Clip 2" fill="white">
                <use xlink:href="#path-1"></use>
            </mask>
            <g id="Clip-2"></g>
            <path d="M140.3115,14.4502 C135.1385,16.7642 129.5975,18.2862 123.7905,18.9882 C129.7235,15.4272 134.2865,9.7952 136.4425,3.0762 C130.8765,6.3602 124.7015,8.7592 118.1575,10.0462 C112.9005,4.4472 105.4135,0.9452 97.1405,0.9452 C81.2285,0.9452 68.3585,13.8402 68.3585,29.7262 C68.3585,32.0072 68.6015,34.1982 69.0855,36.2952 C45.1765,35.1082 23.9425,23.6422 9.7355,6.2112 C7.2705,10.4642 5.8745,15.4272 5.8745,20.6932 C5.8745,30.6702 10.9555,39.4872 18.6775,44.6602 C13.9315,44.5102 9.5185,43.2062 5.6235,41.0752 L5.6235,41.4092 C5.6235,55.3732 15.5435,66.9892 28.7225,69.6382 C26.2825,70.3062 23.7585,70.6752 21.1425,70.6752 C19.2875,70.6752 17.4655,70.4912 15.7285,70.1242 C19.3795,81.5972 30.0265,89.9042 42.6205,90.1462 C32.7675,97.8682 20.3235,102.4652 6.8445,102.4652 C4.5295,102.4652 2.2475,102.3142 -0.0005,102.0712 C12.7185,110.2202 27.8705,115.0002 44.1155,115.0002 C97.0815,115.0002 126.0385,71.1342 126.0385,33.0692 C126.0385,31.8242 126.0135,30.5792 125.9465,29.3582 C131.5795,25.2802 136.4425,20.2332 140.3115,14.4502" id="Fill-1" fill="#666666" sketch:type="MSShapeGroup" mask="url(#mask-2)"></path>
        </g>
    </g>
</svg>