<?xml version="1.0" encoding="UTF-8" standalone="no"?>
<svg width="538px" height="280px" viewBox="0 0 538 280" version="1.1" xmlns="http://www.w3.org/2000/svg" xmlns:xlink="http://www.w3.org/1999/xlink" xmlns:sketch="http://www.bohemiancoding.com/sketch/ns">
    <!-- Generator: Sketch 3.2.2 (9983) - http://www.bohemiancoding.com/sketch -->
    <title>Imported Layers</title>
    <desc>Created with Sketch.</desc>
    <defs>
        <path id="path-1" d="M0,0.307 L537.91,0.307 L537.91,280 L0,280 L0,0.307 Z"></path>
    </defs>
    <g id="Page-1" stroke="none" stroke-width="1" fill="none" fill-rule="evenodd" sketch:type="MSPage">
        <g id="Imported-Layers" sketch:type="MSLayerGroup">
            <g id="Group-3">
                <mask id="mask-2" sketch:name="Clip 2" fill="white">
                    <use xlink:href="#path-1"></use>
                </mask>
                <g id="Clip-2"></g>
                <path d="M526.6099,125.9077 C541.6759,133.7417 541.6759,146.5617 526.6099,154.4007 L296.3639,274.1247 C281.2879,281.9587 256.6279,281.9587 241.5559,274.1247 L11.2989,154.4007 C-3.7661,146.5617 -3.7661,133.7417 11.2989,125.9077 L241.5559,6.1787 C256.6279,-1.6503 281.2879,-1.6503 296.3639,6.1787 L526.6099,125.9077 Z" id="Fill-1" fill="#606060" sketch:type="MSShapeGroup" mask="url(#mask-2)"></path>
            </g>
            <path d="M186.7568,101.6353 C183.7668,105.5473 179.4408,106.2703 173.6748,106.3743 C169.7578,106.4793 165.9458,106.3743 162.0338,106.2703 C160.3848,109.5693 156.8858,117.8113 154.8178,123.9913 C157.3998,124.0903 159.9708,123.9913 162.5468,123.9913 C165.8458,123.9913 170.3758,123.5773 171.7168,122.6503 C172.6438,122.0323 173.3658,122.7553 172.8478,124.1953 C170.0728,132.4333 168.1138,133.6683 161.9288,133.9833 C159.0488,134.0873 153.4818,134.0873 151.3248,134.0873 C148.5388,142.9433 146.2708,150.6723 144.9358,156.7473 C143.7998,162.2093 143.2858,167.0483 143.9038,169.2113 C144.4178,171.2743 143.7998,171.4783 141.8458,171.0643 C130.6188,168.9023 122.3708,164.7853 125.9788,151.0813 C127.2148,146.2373 129.4818,138.9263 131.0268,133.8783 C129.2728,133.9833 126.9058,133.6683 125.0468,134.8053 C123.8158,135.5283 122.9938,136.1453 123.4018,133.7733 C123.8158,131.6103 125.3608,127.5943 125.7688,126.6673 C126.7008,124.5043 127.6278,123.8863 129.6858,123.8863 L134.4258,123.8863 C135.7608,119.9743 137.5148,114.5123 139.1598,110.7003 C139.8878,108.9513 141.7418,107.0973 147.3028,105.2433 C139.7828,105.1383 136.0748,105.4473 132.0588,106.0653 C124.2298,107.3013 120.1078,112.0413 120.1078,118.0163 C120.1078,119.0423 120.5168,121.7233 121.0348,122.7553 C121.5538,123.6823 121.6528,123.6823 120.1078,123.9913 C112.9968,125.6353 108.1578,121.2103 108.4668,114.6173 C109.2888,98.2363 134.9388,90.5123 147.9208,90.5123 C154.0008,90.5123 187.6838,92.0573 190.8728,88.2453 C191.8048,87.1133 193.2508,87.9363 192.7318,89.3763 C190.8728,94.6333 189.0248,98.6503 186.7568,101.6353" id="Fill-4" fill="#FEFEFE" sketch:type="MSShapeGroup"></path>
            <path d="M196.0259,128.2134 C192.1089,128.2134 184.0759,149.6374 184.2799,155.5074 C184.3849,157.1624 184.7979,158.4974 186.2379,158.4974 C190.6689,158.4974 197.8799,137.5824 197.9849,131.3034 C197.9849,129.3444 197.3609,128.2134 196.0259,128.2134 M183.4629,164.9864 C172.7429,164.9864 166.3599,160.9694 166.3599,149.7414 C166.3599,132.6434 183.2529,121.7254 199.4249,121.7254 C209.7249,121.7254 216.0099,126.1504 216.0099,136.6604 C216.0099,153.8634 199.9379,164.9864 183.4629,164.9864" id="Fill-6" fill="#FEFEFE" sketch:type="MSShapeGroup"></path>
            <path d="M250.8286,141.9141 C249.5926,139.9551 247.3196,138.9241 245.4716,139.0291 C242.9996,139.2331 240.7316,141.2961 239.0826,146.1351 C237.8466,149.8421 236.1966,154.7911 234.9616,159.9381 C233.5206,165.8091 232.2856,165.8091 214.1556,163.4421 C216.1136,156.5401 220.4396,141.5001 221.6756,135.1171 C222.1886,132.2311 222.3976,128.4191 220.9526,125.5331 C227.9596,122.1351 231.6676,121.7211 235.5846,121.7211 C239.1876,121.7211 241.1456,122.9621 240.2186,129.3461 C240.0096,130.8911 239.5956,132.6401 239.0826,134.8081 C244.6436,123.9881 249.5926,121.2081 253.9186,121.2081 C257.1126,121.2081 259.6896,122.5481 259.6896,127.1831 C259.6896,132.1261 256.1856,139.0291 250.8286,141.9141" id="Fill-8" fill="#FEFEFE" sketch:type="MSShapeGroup"></path>
            <path d="M341.7847,149.9502 C336.2227,158.0882 326.0267,164.9892 317.9937,164.9892 C308.6147,164.9892 308.3057,158.1862 308.7197,154.4792 C309.4427,148.9182 311.9137,142.4292 313.0447,137.3822 C313.4587,135.5282 313.1487,133.3652 311.7047,133.3652 C309.5417,133.3652 307.8917,136.5592 305.2157,144.1792 C303.6717,148.7142 301.9227,154.0702 300.1677,159.7312 C298.6227,164.7862 295.7377,165.8112 280.3887,163.4442 C282.8657,155.7162 287.2957,142.2202 288.2217,137.6912 C288.7357,135.0092 288.5267,133.3652 287.0867,133.3652 C284.2007,133.3652 281.5237,140.4712 280.6977,142.6342 C278.9487,147.4772 276.7857,153.5532 274.5167,160.2512 C272.7637,165.5032 268.9567,165.6072 254.1257,163.4442 C257.4147,154.4792 261.3317,140.7792 262.3637,134.9092 C262.8817,132.0242 262.9867,129.1382 261.3317,126.4632 C266.2757,123.5772 273.0727,121.7232 276.4757,121.7232 C280.2837,121.7232 282.4517,123.3722 282.0377,127.7982 C281.9377,128.8292 281.4207,131.0972 281.0067,132.6412 C285.7457,127.9032 293.6797,121.7232 299.9637,121.7232 C304.3927,121.7232 306.6567,123.5772 307.1747,127.2842 C307.2797,128.2122 307.3787,129.1382 307.2797,130.2752 C313.1487,125.9452 319.3297,121.7232 325.6137,121.7232 C330.2477,121.7232 332.9237,123.9912 332.7197,129.5532 C332.5147,135.5282 329.0117,144.7972 327.8807,150.4632 C327.0537,154.3802 328.4987,154.9982 331.7927,151.9092 C334.5737,149.3322 338.6947,144.7972 341.1667,141.0892 C341.7847,140.1612 342.5077,140.1612 342.7117,141.2992 C343.7437,145.9282 343.3347,147.6812 341.7847,149.9502" id="Fill-10" fill="#FEFEFE" sketch:type="MSShapeGroup"></path>
            <path d="M367.9507,128.0054 C361.8707,128.0054 354.4557,148.9224 354.4557,154.3784 C354.4557,155.4094 354.7637,156.4414 355.6917,156.4414 C360.3307,156.4414 369.5997,133.1584 369.5997,129.2414 C369.5997,128.2144 368.8777,128.0054 367.9507,128.0054 M395.8677,151.1834 C391.5427,157.3624 383.6087,164.9874 374.4387,164.9874 C369.7047,164.9874 365.4787,162.5154 363.7297,157.3624 C358.3727,162.5154 353.0147,164.9874 347.0407,164.9874 C339.4157,164.9874 335.7077,159.8354 335.7077,152.2154 C335.7077,136.5574 350.7477,121.7214 365.8877,121.7214 C368.6737,121.7214 372.8997,122.3394 374.6437,123.9884 C378.3567,120.1764 387.8347,122.1354 391.2287,124.6064 C387.9397,127.0784 383.1947,142.4274 381.3467,149.9474 C380.3147,154.0694 380.9317,157.0594 384.5357,153.9694 C387.8347,151.1834 393.2917,144.7994 395.8677,141.1914 C396.7997,139.8514 397.8217,140.1654 397.8217,143.3544 C397.8217,147.8894 397.0047,149.6384 395.8677,151.1834" id="Fill-12" fill="#FEFEFE" sketch:type="MSShapeGroup"></path>
            <path d="M430.2739,149.5371 C423.7859,157.8791 414.5159,164.9911 405.8599,164.9911 C393.8049,164.9911 392.2589,156.6431 394.4219,147.0651 C395.2499,143.3521 397.3079,136.3511 398.8529,131.5121 L395.5589,131.1981 C392.7789,130.8941 392.3649,130.3761 392.8779,128.8311 L394.5279,124.3011 C395.2499,122.2381 395.8629,122.1381 398.1349,122.1381 L401.8419,122.1381 C402.1519,121.2061 402.5609,120.2791 402.8699,119.4571 C406.0639,111.9371 411.5259,110.4911 423.3719,110.4911 C425.3299,110.4911 424.6079,111.8321 423.7859,113.0681 C422.3389,115.1311 421.2089,117.7081 419.7639,122.1381 L426.4659,122.1381 C428.5199,122.1381 428.5199,122.4471 427.7029,124.5051 C425.3299,130.0671 424.9169,130.3761 422.6489,130.6851 L417.3969,131.4071 C415.6479,136.7641 413.0709,145.0021 412.2489,148.3011 C410.3949,155.4071 412.8669,156.2351 416.4689,153.6531 C419.7639,151.2861 427.0799,144.1801 430.3779,139.7491 C431.9179,137.7911 432.5419,137.8961 432.8439,141.5041 C433.2639,145.9291 431.9179,147.4791 430.2739,149.5371" id="Fill-14" fill="#FEFEFE" sketch:type="MSShapeGroup"></path>
            <path d="M247.748,206.1377 C248.587,206.1637 249.425,206.2037 250.264,206.2127 C253.069,206.2417 255.873,206.2837 258.678,206.2757 C260.278,206.2707 261.878,206.1777 263.478,206.1247 C263.588,206.1217 263.699,206.1247 263.827,206.1247 L263.827,207.3867 C263.299,207.4217 262.769,207.4327 262.246,207.5007 C261.731,207.5677 261.211,207.6517 260.714,207.8007 C259.297,208.2247 258.434,209.2127 258.194,210.6447 C258.002,211.7917 257.895,212.9657 257.89,214.1287 C257.866,219.2957 257.88,224.4627 257.913,229.6297 C257.918,230.5097 258.015,231.4007 258.179,232.2667 C258.519,234.0567 259.462,234.9507 261.264,235.2387 C262.1,235.3707 262.952,235.4117 263.822,235.4967 L263.822,236.5827 C258.457,236.4397 253.102,236.3837 247.748,236.6087 L247.748,235.4507 C248.561,235.3807 249.382,235.3627 250.186,235.2337 C251.985,234.9447 253.176,233.9427 253.465,232.0917 C253.629,231.0427 253.727,229.9727 253.733,228.9107 C253.76,223.8147 253.755,218.7177 253.735,213.6207 C253.731,212.6827 253.65,211.7397 253.526,210.8077 C253.318,209.2417 252.515,208.1297 250.913,207.7327 C250.474,207.6247 250.024,207.5487 249.575,207.4997 C248.968,207.4337 248.357,207.4087 247.748,207.3657 L247.748,206.1377 Z" id="Fill-16" fill="#FEFEFE" sketch:type="MSShapeGroup"></path>
            <path d="M290.3228,203.0811 C290.7228,203.1591 291.0898,203.2291 291.4558,203.3031 C291.5218,203.3151 291.5848,203.3391 291.6868,203.3681 C291.5568,204.1051 291.4338,204.8401 291.2988,205.5731 C291.1268,206.5101 290.9658,207.4491 290.7648,208.3801 C290.4608,209.7801 289.7418,210.4631 288.3068,210.6261 C286.8978,210.7851 285.4798,210.8811 284.0638,210.9741 C281.1068,211.1681 278.1478,211.3431 275.1898,211.5251 C275.1568,211.5271 275.1248,211.5421 275.0678,211.5571 C274.9878,212.3751 274.9038,213.1981 274.8268,214.0211 C274.6738,215.6611 274.5188,217.3001 274.3798,218.9391 C274.3538,219.2541 274.3688,219.5791 274.4198,219.8901 C274.5648,220.7801 275.1338,221.3131 276.0958,221.4751 C277.9318,221.7831 279.7588,222.1321 281.5328,222.7081 C283.9068,223.4781 286.1278,224.5371 288.0138,226.2101 C290.4468,228.3681 291.7408,231.0861 291.9278,234.3241 C292.1288,237.7941 291.4548,241.0771 289.7248,244.1131 C288.3618,246.5051 286.4768,248.4171 284.2178,249.9671 C281.0768,252.1191 277.5828,253.4001 273.8688,254.1191 C272.7568,254.3341 271.6308,254.4731 270.4768,254.6511 C270.2838,253.9561 270.1048,253.3081 269.9208,252.6441 C270.6688,252.4991 271.3938,252.3741 272.1118,252.2151 C275.2558,251.5151 278.2588,250.4481 280.9898,248.7091 C283.3738,247.1901 285.3598,245.2891 286.4868,242.6441 C287.7448,239.6931 287.9188,236.6781 286.7328,233.6631 C285.8318,231.3731 284.1508,229.7431 282.0708,228.5001 C279.7188,227.0951 277.1398,226.3381 274.4528,225.9051 C274.0158,225.8341 273.5768,225.7681 273.1488,225.6621 C272.1038,225.4041 271.6498,224.9091 271.6188,223.8261 C271.5898,222.8081 271.6358,221.7841 271.7158,220.7681 C271.8838,218.6401 272.0968,216.5161 272.2908,214.3911 C272.4978,212.1181 272.7068,209.8461 272.9058,207.5731 C272.9248,207.3481 273.0468,207.3241 273.2188,207.3141 C274.1608,207.2651 275.1018,207.2141 276.0428,207.1601 C279.8858,206.9371 283.7288,206.7141 287.5728,206.4921 C288.3198,206.4491 288.9138,206.1161 289.2808,205.4721 C289.5878,204.9341 289.8208,204.3521 290.0748,203.7841 C290.1708,203.5681 290.2338,203.3381 290.3228,203.0811" id="Fill-18" fill="#FEFEFE" sketch:type="MSShapeGroup"></path>
        </g>
    </g>
</svg>