<?xml version="1.0" encoding="utf-8"?>
<!-- Generator: Adobe Illustrator 15.0.0, SVG Export Plug-In . SVG Version: 6.00 Build 0)  -->
<!DOCTYPE svg PUBLIC "-//W3C//DTD SVG 1.1//EN" "http://www.w3.org/Graphics/SVG/1.1/DTD/svg11.dtd">
<svg version="1.1" id="Layer_1" xmlns="http://www.w3.org/2000/svg" xmlns:xlink="http://www.w3.org/1999/xlink" x="0px" y="0px"
	 width="1224px" height="792px" viewBox="0 0 1224 792" enable-background="new 0 0 1224 792" xml:space="preserve">
<path fill="#010101" d="M629.205,275.574c0,33.599-8.51,69.329-20.845,90.595c-23.818,39.13-74.428,64.224-129.72,64.224
	c-91.019,0-152.266-59.123-152.266-147.163c0-88.895,63.373-149.716,156.518-149.716c38.704,0,74.858,11.487,99.101,31.049
	c12.76,10.207,20.845,19.142,37.001,40.405L525,242.398c-17.865-17.014-26.798-21.693-41.684-21.693
	c-29.77,0-51.889,26.797-51.889,63.378c0,37.426,20.414,62.092,51.041,62.092c22.117,0,40.83-11.482,44.657-27.219H476.09v-63.8
	h153.115V275.574z"/>
<path fill-rule="evenodd" clip-rule="evenodd" fill="#D1A534" d="M499.931,171.668c31.084-10.596,47.72,3.102,47.72,3.102
	c-6.98-3.405-14.17-4.178-20.63-4.819c-13.038-1.299-23.7,0.965-27.257,1.865c16.456,0.731,26.118,4.897,38.767,10.911
	c8.745,4.916,21.824,3.91,33.175-2.352C571.407,179.996,542.261,148.516,499.931,171.668z"/>
<path fill-rule="evenodd" clip-rule="evenodd" fill="#D1A534" d="M483.08,182.275c32.807,1.34,46.032,22.218,46.032,22.218
	c-5.279-5.696-11.697-9.006-17.497-11.94c-11.69-5.916-25.11-9.754-28.75-10.199c15.08,6.624,25.249,16.095,34.869,26.268
	c6.384,7.743,18.949,11.528,31.793,9.785C549.38,217.939,541.628,181.895,483.08,182.275z"/>
<path fill-rule="evenodd" clip-rule="evenodd" fill="#D1A534" d="M428.77,197.779c30.477-12.23,47.807,0.566,47.807,0.566
	c-7.154-3.028-14.364-3.419-20.855-3.716c-13.083-0.606-23.61,2.217-27.118,3.312c16.477-0.146,26.347,3.5,39.291,8.832
	c8.992,4.441,22.007,2.75,33.01-4.105C500.578,202.299,469.804,172.412,428.77,197.779z"/>
<path fill-rule="evenodd" clip-rule="evenodd" fill="#D1A534" d="M392.962,241.856c17.602-27.721,39.152-27.451,39.152-27.451
	c-7.578,1.716-13.663,5.61-19.102,9.156c-10.982,7.149-17.876,15.589-20.085,18.523c13.291-9.738,23.433-12.539,37.051-15.768
	c9.901-1.646,19.477-10.617,24.401-22.605C453.901,203.6,411.471,197.303,392.962,241.856z"/>
<path fill-rule="evenodd" clip-rule="evenodd" fill="#D1A534" d="M385.357,303.9c-0.58-32.832,17.549-44.473,17.549-44.473
	c-5.379,5.607-8.314,12.206-10.901,18.164c-5.224,12.01-6.331,22.856-6.554,26.524c5.727-15.448,12.646-23.376,22.234-33.571
	c7.356-6.826,10.412-19.584,7.919-32.305C415.145,238.412,376.257,256.522,385.357,303.9z"/>
<path fill-rule="evenodd" clip-rule="evenodd" fill="#D1A534" d="M414.121,358.805c-18.487-27.135-9.714-46.82-9.714-46.82
	c-1.417,7.648-0.254,14.768,0.854,21.172c2.212,12.913,7.237,22.582,9.058,25.773c-3.682-16.056-2.24-26.481,0.181-40.27
	c2.406-9.738-2.035-22.082-11.093-31.354C403.111,287.706,380.53,324.175,414.121,358.805z"/>
<path fill-rule="evenodd" clip-rule="evenodd" fill="#D1A534" d="M472.243,382.315c-31.445-9.472-36.992-30.289-36.992-30.289
	c3.699,6.835,9.082,11.635,13.973,15.924c9.843,8.642,19.831,13.007,23.248,14.341c-12.958-10.173-18.393-19.182-25.18-31.432
	c-4.254-9.085-15.469-15.886-28.347-17.396C418.969,333.962,424.345,376.515,472.243,382.315z"/>
<path fill-rule="evenodd" clip-rule="evenodd" fill="#D1A534" d="M530.917,370.243c-31.89,7.835-47.254-7.272-47.254-7.272
	c6.661,4.008,13.739,5.403,20.123,6.608c12.871,2.438,23.692,1.115,27.312,0.524c-16.33-2.167-25.596-7.161-37.654-14.253
	c-8.287-5.665-21.41-5.811-33.26-0.569C460.455,355.697,486.727,389.608,530.917,370.243z"/>
<path fill-rule="evenodd" clip-rule="evenodd" fill="#D1A534" d="M560.834,327.736c-11.801,31.799-31.695,24.624-31.695,24.624
	c6.843,0.587,12.059-1.879,16.602-4.547c8.912-6.467,13.663-16.594,15.087-20.387c-10.086,11.19-18.691,12.857-30.507,13.757
	c-8.731-0.458-17.144,4.782-21.631,12.385C509.142,353.849,550.068,378.879,560.834,327.736z"/>
<path fill-rule="evenodd" clip-rule="evenodd" fill="#D1A534" d="M438.588,180.216c21.394-24.916,42.679-21.564,42.679-21.564
	c-7.743,0.618-14.324,3.598-20.219,6.33c-11.888,5.5-19.921,12.868-22.533,15.45c14.553-7.728,24.989-9.051,38.934-10.291
	c10.035-0.21,20.795-7.721,27.387-18.878C504.383,151.087,463.289,138.774,438.588,180.216z"/>
<path fill-rule="evenodd" clip-rule="evenodd" fill="#D1A534" d="M391.754,216.898c6.932-32.102,27.242-39.296,27.242-39.296
	c-6.516,4.234-10.877,9.985-14.76,15.196c-7.829,10.505-11.382,20.81-12.444,24.32c9.109-13.724,17.653-19.862,29.326-27.597
	c8.718-4.968,14.601-16.698,15.08-29.649C435.712,159.937,393.72,168.694,391.754,216.898z"/>
<path fill-rule="evenodd" clip-rule="evenodd" fill="#D1A534" d="M372.292,273.88c-10.868-30.993,2.688-47.742,2.688-47.742
	c-3.341,7.014-4.053,14.201-4.64,20.67c-1.191,13.047,1.171,23.689,2.098,27.241c0.594-16.463,4.671-26.163,10.579-38.854
	c4.838-8.794,3.727-21.867-2.636-33.159C380.005,202.344,348.772,231.752,372.292,273.88z"/>
<path fill-rule="evenodd" clip-rule="evenodd" fill="#D1A534" d="M380.113,331.761c-24.256-22.145-20.255-43.316-20.255-43.316
	c0.378,7.759,3.157,14.431,5.706,20.4c5.14,12.052,12.26,20.304,14.757,22.995c-7.276-14.777-8.286-25.256-9.096-39.228
	c0.087-10.035-7.088-21.021-18.042-27.949C352.995,265.11,339.436,305.817,380.113,331.761z"/>
<path fill-rule="evenodd" clip-rule="evenodd" fill="#D1A534" d="M421.258,376.9c-32.647-3.56-41.91-23.016-41.91-23.016
	c4.884,6.039,11.062,9.78,16.646,13.101c11.26,6.696,21.873,9.158,25.482,9.856c-14.594-7.638-21.596-15.497-30.49-26.305
	c-5.853-8.148-18.13-12.788-31.063-11.92C360.038,339.092,373.115,379.959,421.258,376.9z"/>
<path fill-rule="evenodd" clip-rule="evenodd" fill="#D1A534" d="M477.799,392.06c-29.223,14.987-47.661,3.834-47.661,3.834
	c7.405,2.358,14.615,2.081,21.109,1.786c13.087-0.602,23.308-4.39,26.704-5.787c-16.393,1.649-26.562-1.062-39.939-5.195
	c-9.367-3.588-22.169-0.705-32.491,7.137C405.879,394.165,439.273,421.098,477.799,392.06z"/>
<path fill-rule="evenodd" clip-rule="evenodd" fill="#D1A534" d="M534.197,376.216c-15.573,28.913-37.086,30.18-37.086,30.18
	c7.433-2.254,13.219-6.57,18.407-10.492c10.427-7.919,16.706-16.834,18.706-19.911c-12.565,10.655-22.478,14.184-35.842,18.369
	c-9.752,2.352-18.655,11.983-22.712,24.293C476.146,418.73,518.922,421.984,534.197,376.216z"/>
<path fill-rule="evenodd" clip-rule="evenodd" fill="#D1A534" d="M573.692,340.589c-0.875,32.824-19.505,43.656-19.505,43.656
	c5.62-5.362,8.836-11.826,11.697-17.66c5.752-11.773,7.328-22.558,7.731-26.208c-6.418,15.167-13.677,22.794-23.714,32.55
	c-7.648,6.494-11.26,19.112-9.336,31.924C541.032,404.701,580.687,388.327,573.692,340.589z"/>
<path fill="#D1A534" d="M424.936,200.026c8.192-5.347,14.621-7.924,14.621-7.924s1.452,0.078-4.379,4.869
	c-9.02,4.944-18.157,13.554-25.17,22.227c-13.09,16.188-25.575,39.428-25.575,69.181c0,40.076,29.688,70.427,29.688,70.427
	s-34.067-24.676-34.067-69.787C380.053,233.926,413.534,207.469,424.936,200.026z"/>
<path fill="#D1A534" d="M409.418,369.297c0,0,27.42,25.507,74.6,25.507c47.185,0,107.115-43.997,107.115-107.756
	c0,0-5.744-6.374-15.941-3.823c0,0,4.46,105.838-90.535,105.838C437.473,389.063,409.418,369.297,409.418,369.297z"/>
</svg>
