<?xml version="1.0" encoding="UTF-8" standalone="no"?>
<svg width="498px" height="70px" viewBox="0 0 498 70" version="1.1" xmlns="http://www.w3.org/2000/svg" xmlns:xlink="http://www.w3.org/1999/xlink" xmlns:sketch="http://www.bohemiancoding.com/sketch/ns">
    <!-- Generator: Sketch 3.2.2 (9983) - http://www.bohemiancoding.com/sketch -->
    <title>Imported Layers</title>
    <desc>Created with Sketch.</desc>
    <defs>
        <path id="path-1" d="M0,0.026 L497.806,0.026 L497.806,70 L0,70 L0,0.026 Z"></path>
    </defs>
    <g id="Page-1" stroke="none" stroke-width="1" fill="none" fill-rule="evenodd" sketch:type="MSPage">
        <g id="Imported-Layers" sketch:type="MSLayerGroup">
            <g id="Group-3">
                <mask id="mask-2" sketch:name="Clip 2" fill="white">
                    <use xlink:href="#path-1"></use>
                </mask>
                <g id="Clip-2"></g>
                <path d="M472.3364,53.8267 C474.2054,58.4977 482.3254,57.7317 483.8884,53.8267 C484.1494,53.1767 485.0664,50.0627 483.5584,47.5557 C482.7204,46.1627 479.8744,44.7387 476.2974,45.5757 C471.7664,46.6347 470.8754,50.1767 472.3364,53.8267 L472.3364,53.8267 Z M349.5524,27.7517 C350.9894,27.9647 353.2834,27.3217 354.1734,28.0817 L354.1734,49.2057 L350.5424,49.2057 L350.5424,55.8067 L367.3754,55.8067 L367.3754,49.2057 C366.1554,48.9947 364.0884,49.6337 363.4154,48.8757 L363.4154,21.1507 L349.5524,21.1507 L349.5524,27.7517 Z M473.6564,30.7227 C479.4144,35.8267 488.5204,27.4317 482.8984,21.8107 C481.7074,20.6197 479.4594,20.2097 477.2874,20.4907 C472.0504,21.1667 469.8924,27.3857 473.6564,30.7227 L473.6564,30.7227 Z M452.2024,29.0717 C452.4324,26.4407 452.7284,23.8767 452.8624,21.1507 L439.3294,21.1507 L439.3294,27.7517 C440.7674,27.9647 443.0614,27.3217 443.9504,28.0817 L443.9504,49.2057 L439.9894,49.2057 L439.9894,55.8067 L457.4824,55.8067 L457.4824,49.2057 C456.1544,48.9937 453.9744,49.6347 453.1924,48.8757 C452.3434,37.0897 452.9434,26.4687 464.7444,28.7427 C465.0104,26.0367 465.2284,23.2847 465.4044,20.4907 C457.8044,19.0907 453.7554,23.3987 452.2024,29.0717 L452.2024,29.0717 Z M400.3824,29.7317 C395.3294,39.8127 400.1154,50.7807 405.6634,54.1567 C408.9404,56.1517 413.8424,56.8897 417.2154,56.7977 C430.1554,56.4467 439.6324,43.8687 433.3894,29.4017 C431.0824,24.0577 424.0334,19.9247 415.5654,20.4907 C406.8164,21.0747 402.4564,25.5947 400.3824,29.7317 L400.3824,29.7317 Z M339.9814,25.4417 C336.4194,19.1377 325.4814,18.4867 320.1764,23.7907 C318.9094,25.0577 318.8344,26.6247 317.2064,28.0817 C317.7004,26.0457 317.9094,23.7237 317.8664,21.1507 L304.3334,21.1507 L304.3334,27.7517 C305.7714,27.9647 308.0654,27.3217 308.9544,28.0817 L308.9544,49.2057 L305.3234,49.2057 L305.3234,55.8067 L322.1564,55.8067 L322.1564,49.2057 C320.8284,48.9937 318.6474,49.6347 317.8664,48.8757 C317.2954,37.9017 317.3524,26.3337 327.7684,28.0817 C335.0614,29.3057 331.5724,40.9117 332.3894,49.2057 L328.7584,49.2057 L328.7584,55.8067 L345.5914,55.8067 L345.5914,49.2057 C344.3714,48.9947 342.3034,49.6337 341.6314,48.8757 C340.5864,40.2517 343.6474,31.9317 339.9814,25.4417 L339.9814,25.4417 Z M271.6574,23.1307 C264.5494,27.7597 260.4634,42.7147 267.6964,51.1867 C273.0304,57.4347 284.8504,58.0807 291.4614,54.8167 C302.4364,49.3977 303.1184,31.0797 295.0924,24.1207 C291.9304,21.3797 286.0684,20.0977 280.8984,20.4907 C276.7024,20.8097 274.1464,21.5107 271.6574,23.1307 L271.6574,23.1307 Z M212.9054,23.1307 C211.1614,24.6397 210.8784,26.5947 209.2754,28.0817 C209.8834,26.1597 210.0064,23.7517 209.9354,21.1507 L196.4024,21.1507 L196.4024,27.7517 C197.8404,27.9647 200.1334,27.3217 201.0234,28.0817 L201.0234,49.2057 L197.0634,49.2057 L197.0634,55.8067 L214.2264,55.8067 L214.2264,49.2057 C213.0064,48.9947 210.9384,49.6337 210.2654,48.8757 C210.5164,40.2407 208.6964,31.2467 214.5564,28.7427 C217.4764,27.4937 220.8734,27.9627 222.4784,29.7317 C225.7514,33.3417 222.7544,42.9657 223.7974,49.2057 L220.4974,49.2057 L220.4974,55.8067 L237.0004,55.8067 L237.0004,49.2057 C235.7804,48.9947 233.7124,49.6337 233.0404,48.8757 C232.5164,38.7517 232.0924,26.2187 242.2814,28.0817 C248.9194,29.2957 245.9214,41.3817 246.5724,49.2057 L243.2724,49.2057 L243.2724,55.8067 L259.7744,55.8067 L259.7744,49.2057 C258.5554,48.9947 256.4864,49.6337 255.8144,48.8757 C255.4904,37.1017 257.8754,24.5777 249.5434,21.1507 C241.7204,17.9327 234.0114,22.2967 232.0494,28.0817 C231.0984,19.6777 218.9124,17.9327 212.9054,23.1307 L212.9054,23.1307 Z M165.0464,22.1407 C157.2064,26.0887 152.4894,39.1107 157.7854,48.8757 C161.6644,56.0297 174.5564,59.0847 183.2004,54.8167 C187.1264,52.8787 191.3074,48.0827 192.1114,42.6047 C194.3064,27.6537 185.3884,19.5657 172.6384,20.4907 C169.4384,20.7227 167.3394,20.9867 165.0464,22.1407 L165.0464,22.1407 Z M99.6934,21.4807 C91.6274,24.6497 85.2374,36.7967 90.4524,47.8857 C95.5464,58.7197 113.5074,59.1777 120.8174,51.5167 C123.0794,49.1467 125.2214,44.8657 125.4394,39.6337 C125.9844,26.5337 118.2154,19.6717 105.9654,20.4907 C103.6334,20.6457 101.4434,20.7927 99.6934,21.4807 L99.6934,21.4807 Z M375.9574,13.8887 L375.9574,21.1507 L371.3364,21.1507 L371.3364,27.7517 C372.7734,27.9647 375.0674,27.3217 375.9574,28.0817 C376.7584,36.2377 374.7244,44.7817 376.2874,50.5267 C378.2284,57.6577 388.3044,57.5687 394.7714,55.1467 C394.6054,52.9937 395.0104,49.6737 394.7714,48.5457 C393.1864,49.7337 389.5214,49.7737 387.1804,49.2057 C383.6754,45.2277 385.4654,34.1977 385.5294,27.7517 L394.7714,27.7517 L394.7714,21.1507 C391.6894,20.9317 387.7324,21.5877 385.1994,20.8207 L385.1994,13.2287 L384.5394,13.2287 C382.0204,13.7907 378.7104,13.5607 375.9574,13.8887 L375.9574,13.8887 Z M133.3604,13.8887 L133.3604,21.1507 L128.7394,21.1507 L128.7394,27.7517 C130.1774,27.9647 132.4704,27.3217 133.3604,28.0817 C134.8214,36.8397 130.8174,47.3817 134.6804,53.1667 C137.9244,58.0247 145.8544,56.9517 151.8444,55.1467 C151.5644,52.8807 152.8574,50.4477 151.8444,48.5457 C148.9744,50.0317 144.7564,50.2187 143.2624,47.8857 C140.6434,43.7957 143.5964,32.7107 142.9324,27.7517 L151.8444,27.7517 L151.8444,21.1507 C148.8714,20.9327 145.0254,21.5877 142.6024,20.8207 L142.6024,13.2287 L141.9424,13.2287 C139.4714,13.8387 136.0174,13.4647 133.3604,13.8887 L133.3604,13.8887 Z M28.4004,37.6537 C37.9554,36.3387 45.0534,22.4547 37.6424,13.8887 C31.9304,7.2877 16.6184,9.6917 4.3054,9.2677 L4.3054,15.8697 C5.7424,16.0827 8.0364,15.4387 8.9264,16.1997 L8.9264,49.2057 L4.3054,49.2057 L4.3054,55.8067 L23.1194,55.8067 L23.1194,49.2057 C21.6814,48.9937 19.3884,49.6367 18.4984,48.8757 L18.4984,37.6537 C22.1974,37.3357 25.2544,38.0867 28.4004,37.6537 L28.4004,37.6537 Z M42.9224,4.6477 L42.9224,11.2487 C44.6884,11.4637 47.3164,10.8147 48.5344,11.5787 L48.5344,49.2057 L44.5734,49.2057 L44.5734,55.8067 L61.7364,55.8067 L61.7364,49.2057 C60.4084,48.9937 58.2274,49.6347 57.4454,48.8757 C57.5884,40.6347 56.3734,32.5427 61.0764,29.4017 C65.0344,26.7587 70.9564,27.6317 71.9684,32.7027 C72.9074,37.4037 71.2724,43.8387 71.9684,49.2057 L68.3374,49.2057 L68.3374,55.8067 L85.1714,55.8067 L85.1714,49.2057 C83.9514,48.9947 81.8834,49.6337 81.2104,48.8757 C80.5024,40.1597 82.7654,31.1167 79.5604,25.4417 C75.9994,19.1377 64.9494,18.5977 59.7564,23.7907 C58.4894,25.0577 58.4144,26.6247 56.7854,28.0817 C58.1144,21.3797 57.1534,12.3867 57.4454,4.6477 L42.9224,4.6477 Z M353.1834,12.8987 C356.4304,17.5317 364.5794,14.4467 364.7354,9.5977 C364.8734,5.2907 361.5804,2.9007 356.8144,3.9877 C352.4834,4.9747 350.7324,9.4027 353.1834,12.8987 L353.1834,12.8987 Z M0.3444,0.0267 L497.7514,0.0267 C497.5304,23.2407 498.1904,47.3357 497.4214,69.9997 L0.0144,69.9997 L0.0144,1.0167 C-0.0136,0.5487 -0.0396,0.0817 0.3444,0.0267 L0.3444,0.0267 Z" id="Fill-1" fill="#FEFEFE" sketch:type="MSShapeGroup" mask="url(#mask-2)"></path>
            </g>
            <path d="M356.814,3.9873 C361.581,2.9003 364.874,5.2913 364.736,9.5983 C364.58,14.4463 356.43,17.5313 353.183,12.8993 C350.732,9.4023 352.484,4.9743 356.814,3.9873" id="Fill-4" fill="#221F20" sketch:type="MSShapeGroup"></path>
            <path d="M57.4458,4.6475 C57.1538,12.3865 58.1148,21.3795 56.7858,28.0825 C58.4138,26.6255 58.4888,25.0585 59.7568,23.7915 C64.9488,18.5985 75.9988,19.1375 79.5598,25.4415 C82.7658,31.1165 80.5028,40.1605 81.2108,48.8765 C81.8838,49.6335 83.9518,48.9955 85.1718,49.2065 L85.1718,55.8075 L68.3378,55.8075 L68.3378,49.2065 L71.9688,49.2065 C71.2718,43.8385 72.9068,37.4035 71.9688,32.7025 C70.9558,27.6315 65.0348,26.7585 61.0768,29.4015 C56.3738,32.5425 57.5888,40.6345 57.4458,48.8765 C58.2268,49.6345 60.4078,48.9945 61.7368,49.2065 L61.7368,55.8075 L44.5728,55.8075 L44.5728,49.2065 L48.5338,49.2065 L48.5338,11.5785 C47.3168,10.8145 44.6888,11.4635 42.9228,11.2485 L42.9228,4.6475 L57.4458,4.6475 Z" id="Fill-6" fill="#221F20" sketch:type="MSShapeGroup"></path>
            <path d="M31.3706,22.1406 C30.7946,16.9786 25.7876,15.1156 18.4976,15.8696 L18.4976,31.0526 C27.1676,32.2946 32.1636,29.2466 31.3706,22.1406 M18.4976,37.6536 L18.4976,48.8756 C19.3886,49.6366 21.6816,48.9936 23.1196,49.2056 L23.1196,55.8076 L4.3056,55.8076 L4.3056,49.2056 L8.9266,49.2056 L8.9266,16.1996 C8.0366,15.4386 5.7426,16.0826 4.3056,15.8696 L4.3056,9.2676 C16.6186,9.6916 31.9306,7.2876 37.6416,13.8896 C45.0536,22.4546 37.9546,36.3386 28.4006,37.6536 C25.2546,38.0866 22.1976,37.3356 18.4976,37.6536" id="Fill-8" fill="#221F20" sketch:type="MSShapeGroup"></path>
            <path d="M141.9424,13.229 L142.6024,13.229 L142.6024,20.82 C145.0254,21.588 148.8714,20.933 151.8444,21.15 L151.8444,27.752 L142.9324,27.752 C143.5964,32.71 140.6434,43.795 143.2624,47.886 C144.7564,50.219 148.9744,50.031 151.8444,48.546 C152.8574,50.448 151.5644,52.88 151.8444,55.147 C145.8544,56.951 137.9244,58.024 134.6804,53.167 C130.8174,47.381 134.8214,36.839 133.3604,28.082 C132.4704,27.321 130.1774,27.965 128.7394,27.752 L128.7394,21.15 L133.3604,21.15 L133.3604,13.889 C136.0174,13.465 139.4714,13.838 141.9424,13.229" id="Fill-10" fill="#221F20" sketch:type="MSShapeGroup"></path>
            <path d="M384.5396,13.229 L385.1996,13.229 L385.1996,20.82 C387.7316,21.588 391.6886,20.932 394.7706,21.15 L394.7706,27.752 L385.5296,27.752 C385.4656,34.198 383.6756,45.228 387.1806,49.206 C389.5206,49.773 393.1856,49.734 394.7706,48.546 C395.0106,49.674 394.6046,52.994 394.7706,55.147 C388.3046,57.568 378.2276,57.658 376.2876,50.526 C374.7246,44.781 376.7586,36.237 375.9576,28.082 C375.0676,27.321 372.7736,27.965 371.3366,27.752 L371.3366,21.15 L375.9576,21.15 L375.9576,13.889 C378.7106,13.561 382.0196,13.791 384.5396,13.229" id="Fill-12" fill="#221F20" sketch:type="MSShapeGroup"></path>
            <path d="M18.498,31.0522 L18.498,15.8692 C25.788,15.1152 30.795,16.9782 31.371,22.1402 C32.164,29.2462 27.167,32.2952 18.498,31.0522" id="Fill-14" fill="#FEFEFE" sketch:type="MSShapeGroup"></path>
            <path d="M100.6841,30.7222 C98.4841,33.9092 97.6771,42.2872 100.3541,46.2352 C103.0531,50.2152 111.1441,50.3312 113.8871,46.2352 C116.5471,42.2632 115.8811,31.8452 112.2361,29.0722 C110.6961,27.8992 108.2021,27.4862 105.3051,28.0822 C103.4131,28.4712 101.5421,29.4792 100.6841,30.7222 M105.9651,20.4902 C118.2161,19.6722 125.9841,26.5332 125.4391,39.6342 C125.2211,44.8652 123.0801,49.1462 120.8181,51.5162 C113.5071,59.1772 95.5471,58.7192 90.4521,47.8862 C85.2371,36.7962 91.6271,24.6502 99.6941,21.4802 C101.4441,20.7932 103.6331,20.6462 105.9651,20.4902" id="Fill-16" fill="#221F20" sketch:type="MSShapeGroup"></path>
            <path d="M167.3569,31.0522 C164.7239,35.1022 164.9839,45.0632 168.6769,47.8852 C172.0709,50.4792 177.5209,49.3332 179.5689,47.5552 C183.2689,44.3452 183.4169,32.8452 179.5689,29.4022 C178.1989,28.1762 175.2509,27.3152 171.9779,28.0822 C169.6889,28.6182 168.2549,29.6722 167.3569,31.0522 M172.6379,20.4902 C185.3889,19.5652 194.3069,27.6542 192.1119,42.6042 C191.3079,48.0832 187.1269,52.8782 183.1999,54.8172 C174.5569,59.0852 161.6639,56.0292 157.7849,48.8762 C152.4899,39.1102 157.2059,26.0882 165.0469,22.1402 C167.3389,20.9862 169.4379,20.7222 172.6379,20.4902" id="Fill-18" fill="#221F20" sketch:type="MSShapeGroup"></path>
            <path d="M232.0498,28.082 C234.0108,22.296 241.7198,17.933 249.5428,21.15 C257.8758,24.578 255.4908,37.102 255.8138,48.876 C256.4868,49.633 258.5548,48.995 259.7748,49.206 L259.7748,55.807 L243.2718,55.807 L243.2718,49.206 L246.5718,49.206 C245.9218,41.381 248.9198,29.296 242.2818,28.082 C232.0918,26.218 232.5158,38.752 233.0398,48.876 C233.7128,49.633 235.7808,48.995 237.0008,49.206 L237.0008,55.807 L220.4978,55.807 L220.4978,49.206 L223.7978,49.206 C222.7548,42.966 225.7508,33.341 222.4778,29.732 C220.8728,27.963 217.4758,27.494 214.5558,28.742 C208.6968,31.247 210.5158,40.24 210.2658,48.876 C210.9378,49.633 213.0068,48.995 214.2258,49.206 L214.2258,55.807 L197.0628,55.807 L197.0628,49.206 L201.0238,49.206 L201.0238,28.082 C200.1338,27.321 197.8408,27.965 196.4028,27.752 L196.4028,21.15 L209.9358,21.15 C210.0068,23.752 209.8828,26.16 209.2758,28.082 C210.8788,26.595 211.1618,24.64 212.9058,23.131 C218.9118,17.933 231.0988,19.678 232.0498,28.082" id="Fill-20" fill="#221F20" sketch:type="MSShapeGroup"></path>
            <path d="M275.2876,31.7124 C273.3466,35.3244 273.0846,44.0314 276.2776,47.2254 C278.9606,49.9074 285.0146,49.9994 287.8306,47.5554 C290.8796,44.9104 292.0986,33.7384 288.1606,29.7324 C286.8176,28.3654 283.7836,27.2214 280.2386,28.0824 C278.2476,28.5654 276.2316,29.9574 275.2876,31.7124 M280.8986,20.4904 C286.0686,20.0974 291.9306,21.3794 295.0926,24.1214 C303.1186,31.0804 302.4356,49.3984 291.4616,54.8164 C284.8506,58.0814 273.0306,57.4344 267.6966,51.1864 C260.4636,42.7144 264.5496,27.7594 271.6576,23.1304 C274.1456,21.5104 276.7026,20.8094 280.8986,20.4904" id="Fill-22" fill="#221F20" sketch:type="MSShapeGroup"></path>
            <path d="M341.6313,48.876 C342.3033,49.633 344.3713,48.995 345.5913,49.206 L345.5913,55.807 L328.7583,55.807 L328.7583,49.206 L332.3893,49.206 C331.5723,40.912 335.0613,29.305 327.7683,28.082 C317.3523,26.334 317.2953,37.902 317.8663,48.876 C318.6473,49.635 320.8283,48.994 322.1563,49.206 L322.1563,55.807 L305.3233,55.807 L305.3233,49.206 L308.9543,49.206 L308.9543,28.082 C308.0653,27.321 305.7713,27.965 304.3333,27.752 L304.3333,21.15 L317.8663,21.15 C317.9093,23.724 317.7003,26.045 317.2063,28.082 C318.8343,26.625 318.9093,25.058 320.1763,23.791 C325.4813,18.486 336.4193,19.138 339.9813,25.441 C343.6473,31.932 340.5863,40.251 341.6313,48.876" id="Fill-24" fill="#221F20" sketch:type="MSShapeGroup"></path>
            <path d="M409.9546,31.3823 C407.9456,34.7823 407.5856,42.6983 409.9546,46.2353 C412.9116,50.6523 421.0326,49.8543 423.4866,46.2353 C424.4556,44.8073 425.0246,42.0333 425.1376,39.9643 C425.5496,32.3893 422.5776,26.4653 414.9046,28.0823 C412.2116,28.6493 410.8926,29.7933 409.9546,31.3823 M415.5646,20.4903 C424.0336,19.9243 431.0826,24.0583 433.3896,29.4023 C439.6326,43.8683 430.1556,56.4463 417.2156,56.7973 C413.8426,56.8893 408.9406,56.1523 405.6636,54.1563 C400.1156,50.7803 395.3296,39.8123 400.3826,29.7323 C402.4566,25.5943 406.8166,21.0743 415.5646,20.4903" id="Fill-26" fill="#221F20" sketch:type="MSShapeGroup"></path>
            <path d="M465.4048,20.4902 C465.2278,23.2842 465.0098,26.0372 464.7448,28.7422 C452.9438,26.4692 452.3428,37.0902 453.1928,48.8762 C453.9738,49.6352 456.1548,48.9942 457.4828,49.2062 L457.4828,55.8072 L439.9898,55.8072 L439.9898,49.2062 L443.9508,49.2062 L443.9508,28.0822 C443.0608,27.3212 440.7668,27.9652 439.3298,27.7522 L439.3298,21.1502 L452.8628,21.1502 C452.7278,23.8772 452.4318,26.4412 452.2028,29.0722 C453.7558,23.3992 457.8038,19.0902 465.4048,20.4902" id="Fill-28" fill="#221F20" sketch:type="MSShapeGroup"></path>
            <path d="M477.2876,20.4902 C479.4596,20.2102 481.7076,20.6192 482.8976,21.8102 C488.5196,27.4322 479.4146,35.8262 473.6566,30.7222 C469.8916,27.3852 472.0506,21.1662 477.2876,20.4902" id="Fill-30" fill="#221F20" sketch:type="MSShapeGroup"></path>
            <path d="M349.5522,21.1504 L363.4152,21.1504 L363.4152,48.8764 C364.0882,49.6334 366.1562,48.9954 367.3752,49.2064 L367.3752,55.8074 L350.5422,55.8074 L350.5422,49.2064 L354.1732,49.2064 L354.1732,28.0824 C353.2832,27.3214 350.9902,27.9644 349.5522,27.7524 L349.5522,21.1504 Z" id="Fill-32" fill="#221F20" sketch:type="MSShapeGroup"></path>
            <path d="M105.3052,28.082 C108.2022,27.486 110.6962,27.899 112.2362,29.072 C115.8812,31.845 116.5472,42.263 113.8872,46.235 C111.1442,50.331 103.0532,50.215 100.3542,46.235 C97.6772,42.287 98.4842,33.909 100.6842,30.722 C101.5422,29.479 103.4122,28.471 105.3052,28.082" id="Fill-34" fill="#FEFEFE" sketch:type="MSShapeGroup"></path>
            <path d="M171.978,28.082 C175.25,27.315 178.199,28.176 179.569,29.402 C183.417,32.845 183.269,44.345 179.569,47.556 C177.521,49.333 172.071,50.479 168.677,47.886 C164.984,45.063 164.724,35.102 167.357,31.052 C168.255,29.672 169.689,28.618 171.978,28.082" id="Fill-36" fill="#FEFEFE" sketch:type="MSShapeGroup"></path>
            <path d="M280.2388,28.082 C283.7838,27.222 286.8178,28.366 288.1608,29.732 C292.0978,33.739 290.8798,44.91 287.8308,47.556 C285.0138,49.999 278.9608,49.908 276.2778,47.226 C273.0848,44.031 273.3458,35.324 275.2878,31.712 C276.2318,29.957 278.2478,28.565 280.2388,28.082" id="Fill-38" fill="#FEFEFE" sketch:type="MSShapeGroup"></path>
            <path d="M414.9048,28.082 C422.5778,26.465 425.5498,32.389 425.1368,39.964 C425.0248,42.033 424.4558,44.807 423.4868,46.235 C421.0328,49.854 412.9118,50.652 409.9548,46.235 C407.5858,42.699 407.9458,34.782 409.9548,31.382 C410.8918,29.793 412.2118,28.649 414.9048,28.082" id="Fill-40" fill="#FEFEFE" sketch:type="MSShapeGroup"></path>
            <path d="M476.2974,45.5752 C479.8744,44.7392 482.7204,46.1622 483.5584,47.5552 C485.0674,50.0622 484.1494,53.1772 483.8884,53.8262 C482.3254,57.7312 474.2054,58.4982 472.3364,53.8262 C470.8754,50.1772 471.7664,46.6352 476.2974,45.5752" id="Fill-42" fill="#221F20" sketch:type="MSShapeGroup"></path>
        </g>
    </g>
</svg>