<?xml version="1.0" encoding="UTF-8" standalone="no"?>
<svg width="481px" height="54px" viewBox="0 0 481 54" version="1.1" xmlns="http://www.w3.org/2000/svg" xmlns:xlink="http://www.w3.org/1999/xlink" xmlns:sketch="http://www.bohemiancoding.com/sketch/ns">
    <!-- Generator: Sketch 3.2.2 (9983) - http://www.bohemiancoding.com/sketch -->
    <title>Imported Layers</title>
    <desc>Created with Sketch.</desc>
    <defs>
        <path id="path-1" d="M0,0.677 L480.357,0.677 L480.357,54 L0,54"></path>
        <path id="path-3" d="M0,0.677 L480.357,0.677 L480.357,54 L0,54"></path>
    </defs>
    <g id="Page-1" stroke="none" stroke-width="1" fill="none" fill-rule="evenodd" sketch:type="MSPage">
        <g id="Imported-Layers" sketch:type="MSLayerGroup">
            <g id="Group-3">
                <mask id="mask-2" sketch:name="Clip 2" fill="white">
                    <use xlink:href="#path-1"></use>
                </mask>
                <g id="Clip-2"></g>
                <path d="M352.5083,0.9375 C357.2753,-0.1485 360.5683,2.2425 360.4303,6.5485 C360.2743,11.3975 352.1243,14.4825 348.8773,9.8495 C346.4263,6.3535 348.1783,1.9255 352.5083,0.9375" id="Fill-1" fill="#221F20" sketch:type="MSShapeGroup" mask="url(#mask-2)"></path>
            </g>
            <path d="M53.1401,1.5977 C52.8481,9.3377 53.8091,18.3297 52.4801,25.0337 C54.1081,23.5767 54.1831,22.0087 55.4511,20.7427 C60.6431,15.5487 71.6941,16.0877 75.2541,22.3927 C78.4601,28.0667 76.1971,37.1117 76.9051,45.8267 C77.5781,46.5837 79.6461,45.9457 80.8661,46.1567 L80.8661,52.7577 L64.0321,52.7577 L64.0321,46.1567 L67.6631,46.1567 C66.9661,40.7887 68.6011,34.3547 67.6631,29.6537 C66.6501,24.5817 60.7291,23.7087 56.7711,26.3527 C52.0681,29.4937 53.2831,37.5847 53.1401,45.8267 C53.9211,46.5857 56.1021,45.9457 57.4311,46.1567 L57.4311,52.7577 L40.2671,52.7577 L40.2671,46.1567 L44.2281,46.1567 L44.2281,8.5297 C43.0111,7.7657 40.3831,8.4137 38.6171,8.1997 L38.6171,1.5977 L53.1401,1.5977 Z" id="Fill-4" fill="#221F20" sketch:type="MSShapeGroup"></path>
            <g id="Group-8">
                <mask id="mask-4" sketch:name="Clip 7" fill="white">
                    <use xlink:href="#path-3"></use>
                </mask>
                <g id="Clip-7"></g>
                <path d="M27.0649,19.0918 C26.4889,13.9298 21.4819,12.0668 14.1919,12.8208 L14.1919,28.0028 C22.8619,29.2458 27.8579,26.1968 27.0649,19.0918 M14.1919,34.6048 L14.1919,45.8258 C15.0829,46.5868 17.3759,45.9438 18.8139,46.1558 L18.8139,52.7578 L-0.0001,52.7578 L-0.0001,46.1558 L4.6209,46.1558 L4.6209,13.1508 C3.7309,12.3898 1.4369,13.0328 -0.0001,12.8208 L-0.0001,6.2188 C12.3129,6.6428 27.6249,4.2378 33.3359,10.8398 C40.7479,19.4048 33.6489,33.2888 24.0939,34.6048 C20.9489,35.0368 17.8919,34.2868 14.1919,34.6048" id="Fill-6" fill="#221F20" sketch:type="MSShapeGroup" mask="url(#mask-4)"></path>
            </g>
            <path d="M137.6367,10.1797 L138.2967,10.1797 L138.2967,17.7717 C140.7197,18.5387 144.5657,17.8827 147.5387,18.1017 L147.5387,24.7027 L138.6267,24.7027 C139.2907,29.6607 136.3377,40.7457 138.9567,44.8357 C140.4507,47.1697 144.6687,46.9827 147.5387,45.4957 C148.5517,47.3987 147.2587,49.8307 147.5387,52.0977 C141.5487,53.9027 133.6187,54.9747 130.3747,50.1177 C126.5117,44.3317 130.5157,33.7897 129.0547,25.0337 C128.1647,24.2717 125.8717,24.9157 124.4337,24.7027 L124.4337,18.1017 L129.0547,18.1017 L129.0547,10.8397 C131.7117,10.4157 135.1657,10.7887 137.6367,10.1797" id="Fill-9" fill="#221F20" sketch:type="MSShapeGroup"></path>
            <path d="M380.2339,10.1797 L380.8939,10.1797 L380.8939,17.7717 C383.4259,18.5387 387.3829,17.8827 390.4649,18.1017 L390.4649,24.7027 L381.2239,24.7027 C381.1599,31.1487 379.3699,42.1787 382.8749,46.1567 C385.2149,46.7247 388.8799,46.6847 390.4649,45.4957 C390.7049,46.6247 390.2989,49.9457 390.4649,52.0977 C383.9989,54.5197 373.9219,54.6087 371.9819,47.4767 C370.4189,41.7327 372.4529,33.1877 371.6519,25.0337 C370.7619,24.2717 368.4679,24.9157 367.0309,24.7027 L367.0309,18.1017 L371.6519,18.1017 L371.6519,10.8397 C374.4049,10.5117 377.7139,10.7417 380.2339,10.1797" id="Fill-11" fill="#221F20" sketch:type="MSShapeGroup"></path>
            <path d="M96.3784,27.6729 C94.1784,30.8599 93.3714,39.2379 96.0484,43.1859 C98.7474,47.1659 106.8384,47.2809 109.5814,43.1859 C112.2414,39.2129 111.5754,28.7959 107.9304,26.0229 C106.3904,24.8499 103.8964,24.4369 100.9994,25.0329 C99.1074,25.4219 97.2364,26.4299 96.3784,27.6729 M101.6594,17.4419 C113.9104,16.6229 121.6784,23.4849 121.1334,36.5839 C120.9154,41.8169 118.7744,46.0979 116.5124,48.4669 C109.2014,56.1289 91.2414,55.6699 86.1464,44.8359 C80.9314,33.7469 87.3214,21.6009 95.3884,18.4319 C97.1384,17.7439 99.3274,17.5969 101.6594,17.4419" id="Fill-13" fill="#221F20" sketch:type="MSShapeGroup"></path>
            <path d="M163.0513,28.0029 C160.4173,32.0529 160.6793,42.0139 164.3713,44.8359 C167.7653,47.4299 173.2153,46.2829 175.2643,44.5059 C178.9633,41.2959 179.1123,29.7959 175.2643,26.3529 C173.8933,25.1269 170.9453,24.2659 167.6723,25.0329 C165.3833,25.5679 163.9493,26.6229 163.0513,28.0029 M168.3323,17.4409 C181.0833,16.5159 190.0013,24.6049 187.8063,39.5549 C187.0023,45.0329 182.8213,49.8289 178.8943,51.7679 C170.2503,56.0349 157.3593,52.9809 153.4803,45.8259 C148.1843,36.0609 152.9003,23.0389 160.7403,19.0919 C163.0333,17.9379 165.1323,17.6739 168.3323,17.4409" id="Fill-15" fill="#221F20" sketch:type="MSShapeGroup"></path>
            <path d="M227.7437,25.0332 C229.7057,19.2472 237.4147,14.8832 245.2377,18.1012 C253.5697,21.5282 251.1847,34.0532 251.5087,45.8262 C252.1817,46.5842 254.2497,45.9452 255.4697,46.1562 L255.4697,52.7582 L238.9667,52.7582 L238.9667,46.1562 L242.2667,46.1562 C241.6157,38.3322 244.6137,26.2462 237.9757,25.0332 C227.7867,23.1692 228.2107,35.7032 228.7337,45.8262 C229.4067,46.5842 231.4747,45.9452 232.6947,46.1562 L232.6947,52.7582 L216.1917,52.7582 L216.1917,46.1562 L219.4927,46.1562 C218.4497,39.9162 221.4447,30.2922 218.1727,26.6822 C216.5677,24.9142 213.1707,24.4442 210.2507,25.6932 C204.3907,28.1972 206.2107,37.1912 205.9597,45.8262 C206.6327,46.5842 208.7007,45.9452 209.9207,46.1562 L209.9207,52.7582 L192.7577,52.7582 L192.7577,46.1562 L196.7187,46.1562 L196.7187,25.0332 C195.8287,24.2712 193.5347,24.9162 192.0977,24.7032 L192.0977,18.1012 L205.6297,18.1012 C205.7007,20.7032 205.5777,23.1102 204.9697,25.0332 C206.5727,23.5452 206.8557,21.5912 208.5997,20.0822 C214.6067,14.8842 226.7927,16.6292 227.7437,25.0332" id="Fill-17" fill="#221F20" sketch:type="MSShapeGroup"></path>
            <path d="M270.9819,28.6631 C269.0409,32.2751 268.7789,40.9821 271.9719,44.1761 C274.6549,46.8581 280.7089,46.9491 283.5249,44.5061 C286.5739,41.8611 287.7929,30.6891 283.8549,26.6831 C282.5119,25.3161 279.4779,24.1721 275.9329,25.0331 C273.9419,25.5161 271.9259,26.9081 270.9819,28.6631 M276.5929,17.4411 C281.7629,17.0481 287.6249,18.3301 290.7869,21.0721 C298.8129,28.0311 298.1299,46.3491 287.1559,51.7671 C280.5449,55.0311 268.7249,54.3851 263.3909,48.1371 C256.1579,39.6651 260.2439,24.7101 267.3519,20.0821 C269.8399,18.4611 272.3969,17.7601 276.5929,17.4411" id="Fill-19" fill="#221F20" sketch:type="MSShapeGroup"></path>
            <path d="M337.3257,45.8262 C337.9977,46.5842 340.0657,45.9452 341.2857,46.1562 L341.2857,52.7582 L324.4527,52.7582 L324.4527,46.1562 L328.0837,46.1562 C327.2667,37.8622 330.7557,26.2562 323.4627,25.0332 C313.0467,23.2852 312.9897,34.8522 313.5607,45.8262 C314.3417,46.5862 316.5227,45.9452 317.8507,46.1562 L317.8507,52.7582 L301.0177,52.7582 L301.0177,46.1562 L304.6487,46.1562 L304.6487,25.0332 C303.7597,24.2712 301.4657,24.9162 300.0277,24.7032 L300.0277,18.1012 L313.5607,18.1012 C313.6037,20.6752 313.3947,22.9962 312.9007,25.0332 C314.5287,23.5762 314.6037,22.0092 315.8707,20.7422 C321.1757,15.4372 332.1137,16.0882 335.6757,22.3922 C339.3417,28.8832 336.2807,37.2022 337.3257,45.8262" id="Fill-21" fill="#221F20" sketch:type="MSShapeGroup"></path>
            <path d="M405.6479,28.333 C403.6399,31.732 403.2799,39.649 405.6479,43.186 C408.6059,47.603 416.7269,46.805 419.1809,43.186 C420.1499,41.758 420.7189,38.984 420.8319,36.914 C421.2439,29.34 418.2719,23.416 410.5989,25.033 C407.9059,25.6 406.5869,26.744 405.6479,28.333 M411.2589,17.441 C419.7279,16.875 426.7769,21.009 429.0839,26.353 C435.3269,40.819 425.8499,53.396 412.9099,53.748 C409.5369,53.84 404.6349,53.103 401.3579,51.107 C395.8099,47.73 391.0239,36.764 396.0769,26.683 C398.1499,22.545 402.5109,18.025 411.2589,17.441" id="Fill-23" fill="#221F20" sketch:type="MSShapeGroup"></path>
            <path d="M461.0991,17.4414 C460.9221,20.2354 460.7041,22.9884 460.4391,25.6934 C448.6381,23.4204 448.0381,34.0414 448.8871,45.8264 C449.6681,46.5864 451.8491,45.9454 453.1771,46.1564 L453.1771,52.7574 L435.6841,52.7574 L435.6841,46.1564 L439.6451,46.1564 L439.6451,25.0334 C438.7551,24.2714 436.4611,24.9164 435.0241,24.7034 L435.0241,18.1014 L448.5571,18.1014 C448.4221,20.8284 448.1261,23.3914 447.8971,26.0224 C449.4511,20.3494 453.4981,16.0414 461.0991,17.4414" id="Fill-25" fill="#221F20" sketch:type="MSShapeGroup"></path>
            <path d="M472.9819,17.4414 C475.1539,17.1604 477.4019,17.5704 478.5919,18.7614 C484.2139,24.3824 475.1089,32.7774 469.3509,27.6724 C465.5859,24.3364 467.7449,18.1174 472.9819,17.4414" id="Fill-27" fill="#221F20" sketch:type="MSShapeGroup"></path>
            <path d="M345.2466,18.1016 L359.1096,18.1016 L359.1096,45.8266 C359.7826,46.5836 361.8506,45.9456 363.0696,46.1566 L363.0696,52.7576 L346.2366,52.7576 L346.2366,46.1566 L349.8676,46.1566 L349.8676,25.0336 C348.9776,24.2716 346.6846,24.9156 345.2466,24.7036 L345.2466,18.1016 Z" id="Fill-29" fill="#221F20" sketch:type="MSShapeGroup"></path>
            <path d="M471.9917,42.5254 C475.5687,41.6894 478.4147,43.1134 479.2527,44.5054 C480.7617,47.0134 479.8437,50.1274 479.5827,50.7774 C478.0197,54.6814 469.8997,55.4494 468.0307,50.7774 C466.5697,47.1274 467.4607,43.5864 471.9917,42.5254" id="Fill-31" fill="#221F20" sketch:type="MSShapeGroup"></path>
        </g>
    </g>
</svg>